<?xml version="1.0" encoding="UTF-8"?>
<svg id="Layer_1" data-name="Layer 1" xmlns="http://www.w3.org/2000/svg" viewBox="0 0 600 600">
  <defs>
    <style>
      .cls-1 {
        fill: #ff405b;
      }

      .cls-2 {
        fill: #fd7e14;
      }

      .cls-3 {
        fill: #ffc107;
      }

      .cls-4 {
        fill: #fff;
      }

      .cls-5 {
        fill: #8ed1fc;
      }

      .cls-6 {
        fill: #d01173;
      }
    </style>
  </defs>
  <path class="cls-1" d="M120.11,552.19c-32.53-12.53-55.94-43.42-57.54-79.98,1.85,36.39,25.18,67.2,57.54,79.98Z"/>
  <path class="cls-3" d="M524.01,130.52v246.02h-.04v23.82h-50.12v-23.82H153.44c-49.65,0-90.14,39.97-90.97,89.42V130.52c0-49.7,40.3-90,90-90h281.54c49.7,0,90,40.3,90,90Z"/>
  <path class="cls-2" d="M112.46,466.6c-.51,23.12,18.69,41.91,41.82,41.91h344.89c13.72,0,24.84,11.12,24.84,24.84h0c0,13.72-11.12,24.84-24.84,24.84H152.47c-10.86,0-21.28-1.92-30.92-5.45-.48-.18-.96-.36-1.44-.55-32.36-12.78-55.69-43.59-57.54-79.98-.03-.63-.06-1.25-.07-1.87-.02-.71-.03-1.43-.03-2.15v-2.23c.83-49.45,41.32-89.42,90.97-89.42h345.73c13.72,0,24.84,11.12,24.84,24.84v.32c0,13.72-11.12,24.84-24.84,24.84H153.44c-22.36,0-40.49,17.82-40.98,40.06Z"/>
  <path class="cls-6" d="M62.47,468.19c0,.72,0,1.44.03,2.15-.04-.94-.05-1.87-.05-2.81,0-.52,0-1.05.02-1.57v2.23Z"/>
  <path class="cls-5" d="M500.9,508.51H154.96c-23.51,0-42.51-18.31-42.51-40.98s19-40.99,42.51-40.99h346.96c-18.47,4.56-32.17,21.24-32.17,41.12s13.2,35.95,31.15,40.85Z"/>
  <g>
    <path class="cls-4" d="M215.35,166.23l37.12,91.35c3.37,8.16,5.57,13.74,6.61,16.71,1.04,2.98,1.55,5.77,1.55,8.36,0,3.24-1.36,6.19-4.08,8.84-2.72,2.65-5.96,3.98-9.72,3.98-3.37,0-6.03-.88-7.97-2.62s-3.63-4.37-5.05-7.87l-9.91-24.68h-56.36l-9.52,25.07c-1.3,3.37-2.92,5.9-4.86,7.58s-4.6,2.53-7.97,2.53c-4.02,0-7.26-1.3-9.72-3.89-2.46-2.59-3.69-5.51-3.69-8.75,0-2.2.29-4.24.87-6.12.58-1.88,1.59-4.63,3.01-8.26l41.01-103.59c1.68-3.76,3.4-6.41,5.15-7.97,1.75-1.56,3.89-2.82,6.41-3.79,2.53-.97,4.96-1.46,7.29-1.46,9.33,0,15.94,4.86,19.82,14.58ZM216.51,238.53l-21.18-57.14-20.6,57.14h41.79Z"/>
    <path class="cls-4" d="M269.38,244.17c0-4.01,1.42-6.96,4.28-8.84,2.85-1.88,7.51-2.82,13.99-2.82h21.18c6.87,0,11.69.81,14.48,2.43,2.78,1.62,4.18,4.63,4.18,9.04s-1.49,7.42-4.47,9.04c-2.98,1.62-6.93,2.43-11.86,2.43h-20.8c-4.93,0-8.78-.19-11.56-.58-2.79-.39-5.05-1.39-6.8-3.01-1.75-1.62-2.62-4.18-2.62-7.68Z"/>
    <path class="cls-4" d="M447.02,168.76c0,3.5-.78,6.71-2.33,9.62-1.55,2.92-5.12,7.68-10.69,14.29l-66.67,78.71h69.77c5.44,0,9,.39,10.69,1.17,2.07.91,3.63,2.33,4.67,4.28,1.04,1.94,1.55,3.76,1.55,5.44,0,2.2-.62,4.31-1.85,6.32-1.23,2.01-3.27,3.34-6.12,3.98-1.55.39-4.54.58-8.94.58h-82.02c-4.41,0-7.97-.16-10.69-.49-2.72-.32-4.93-1.2-6.61-2.62-3.89-3.24-5.83-7.19-5.83-11.86,0-1.81.22-3.33.68-4.57.45-1.23,1.52-2.95,3.21-5.15,1.68-2.2,3.89-4.86,6.61-7.97l71.52-84.74h-58.11c-2.98,0-5.28-.1-6.9-.29-1.62-.19-3.08-.68-4.37-1.46-1.82-1.04-3.14-2.4-3.98-4.08-.84-1.68-1.26-3.37-1.26-5.05,0-1.81.49-3.69,1.46-5.64.97-1.94,2.43-3.3,4.37-4.08,2.07-.78,5.7-1.17,10.88-1.17h74.05c6.22,0,10.59,1.2,13.12,3.6,2.53,2.4,3.79,6.12,3.79,11.18Z"/>
  </g>
</svg>