<?xml version="1.0" encoding="UTF-8"?>
<svg id="Layer_1" data-name="Layer 1" xmlns="http://www.w3.org/2000/svg" viewBox="0 0 600 600">
  <defs>
    <style>
      .cls-1 {
        fill: #fd7e14;
      }

      .cls-2 {
        fill: #ffc107;
      }

      .cls-3 {
        fill: #8ed1fc;
      }
    </style>
  </defs>
  <path class="cls-1" d="M465.18,71.28h24.31c24.84,0,45,20.16,45,45v166.1h-114.31V116.28c0-24.84,20.16-45,45-45Z"/>
  <path class="cls-2" d="M534.68,201.43v265.61c0,49.7-40.3,90-90,90H161.31c-49.7,0-90-40.3-90-90V201.43l155.62-113.06h152.13l155.62,113.06Z"/>
  <circle class="cls-3" cx="302.32" cy="410.04" r="107.07"/>
  <path class="cls-1" d="M202.2,318.96c-6.6,5.9-7.1,16-1.3,22.6,24.9,27.8,61.1,45.3,101.4,45.3s76.5-17.5,101.4-45.3c5.9-6.6,5.3-16.7-1.3-22.6s-16.7-5.3-22.6,1.3c-19,21.2-46.7,34.6-77.5,34.6s-58.5-13.4-77.5-34.7c-5.9-6.6-16-7.1-22.6-1.3v.1Z"/>
  <path d="M238.32,250.86c13.3,0,24-10.7,24-24s-10.7-24-24-24-24,10.7-24,24,10.7,24,24,24ZM366.32,250.86c13.3,0,24-10.7,24-24s-10.7-24-24-24-24,10.7-24,24,10.7,24,24,24Z"/>
  <path class="cls-1" d="M559.09,250.07c-4.89,6.73-12.51,10.3-20.24,10.3-1.39,0-2.79-.12-4.17-.35-3.68-.62-7.28-2.08-10.51-4.42l-206.48-150.02c-8.76-6.37-20.63-6.37-29.39,0L81.82,255.6c-3.23,2.34-6.83,3.8-10.51,4.42-9.07,1.54-18.64-2.01-24.41-9.95-3.23-4.44-4.78-9.58-4.78-14.68,0-7.73,3.58-15.35,10.31-20.24l18.88-13.72,155.62-113.06,61.37-44.59c8.76-6.37,20.63-6.37,29.39,0l61.37,44.59,155.62,113.06,18.88,13.72c11.17,8.11,13.65,23.75,5.53,34.92Z"/>
</svg>