<?xml version="1.0" encoding="UTF-8"?>
<svg id="Layer_1" data-name="Layer 1" xmlns="http://www.w3.org/2000/svg" viewBox="0 0 600 600">
  <defs>
    <style>
      .cls-1 {
        fill: #fd7e14;
      }

      .cls-2 {
        fill: #ffc107;
      }

      .cls-3 {
        fill: #8ed1fc;
      }
    </style>
  </defs>
  <g>
    <rect class="cls-2" x="59.99" y="142.37" width="463.36" height="414.67" rx="90" ry="90"/>
    <path class="cls-1" d="M291.67,49.24c51.33,0,93.09,41.76,93.09,93.09h-50c0-23.76-19.33-43.09-43.09-43.09-23.76,0-43.09,19.33-43.09,43.09h-50c0-51.33,41.76-93.09,93.09-93.09Z"/>
  </g>
  <circle class="cls-3" cx="291.67" cy="410.04" r="107.07"/>
  <path d="M227.67,250.86c13.3,0,24-10.7,24-24s-10.7-24-24-24-24,10.7-24,24,10.7,24,24,24ZM355.67,250.86c13.3,0,24-10.7,24-24s-10.7-24-24-24-24,10.7-24,24,10.7,24,24,24Z"/>
  <path class="cls-1" d="M191.55,318.96c-6.6,5.9-7.1,16-1.3,22.6,24.9,27.8,61.1,45.3,101.4,45.3s76.5-17.5,101.4-45.3c5.9-6.6,5.3-16.7-1.3-22.6s-16.7-5.3-22.6,1.3c-19,21.2-46.7,34.6-77.5,34.6s-58.5-13.4-77.5-34.7c-5.9-6.6-16-7.1-22.6-1.3v.1Z"/>
</svg>