<?xml version="1.0" encoding="UTF-8"?>
<svg id="Layer_1" data-name="Layer 1" xmlns="http://www.w3.org/2000/svg" viewBox="0 0 600 600">
  <defs>
    <style>
      .cls-1 {
        fill: #fd7e14;
      }

      .cls-2 {
        fill: #ffc107;
      }

      .cls-3 {
        fill: #8ed1fc;
      }
    </style>
  </defs>
  <path class="cls-2" d="M535.83,375.17v181.55H72.47v-181.55c0-49.71,40.29-90,90-90h283.36c49.71,0,90,40.29,90,90Z"/>
  <circle class="cls-3" cx="301.82" cy="179.01" r="107.07"/>
  <path class="cls-1" d="M401.21,108.01c6.6-5.9,7.1-16,1.3-22.6-24.9-27.8-61.1-45.3-101.4-45.3s-76.5,17.5-101.4,45.3c-5.9,6.6-5.3,16.7,1.3,22.6s16.7,5.3,22.6-1.3c19-21.2,46.7-34.6,77.5-34.6s58.5,13.4,77.5,34.7c5.9,6.6,16,7.1,22.6,1.3v-.1Z"/>
  <path d="M256.1,188.81c9.61,0,17.35-7.73,17.35-17.35s-7.73-17.35-17.35-17.35-17.35,7.73-17.35,17.35,7.73,17.35,17.35,17.35ZM348.62,188.81c9.61,0,17.35-7.73,17.35-17.35s-7.73-17.35-17.35-17.35-17.35,7.73-17.35,17.35,7.73,17.35,17.35,17.35Z"/>
  <path class="cls-1" d="M212.59,556.43h-50v-137.71c0-13.81,11.19-25,25-25h0c13.81,0,25,11.19,25,25v137.71ZM445.71,418.71c0-13.81-11.19-25-25-25h0c-13.81,0-25,11.19-25,25v137.71h50v-137.71Z"/>
</svg>