<svg width="18" height="28" viewBox="0 0 18 28" fill="none" xmlns="http://www.w3.org/2000/svg">
<path d="M5.86996 0H11.14C11.91 0 12.54 0.629994 12.54 1.39999V4.56H4.46997V1.39999C4.46997 0.629994 5.09996 0 5.86996 0Z" fill="#8ED1FC"/>
<path d="M17.01 7.70999V10.81H0V7.70999C0 5.38999 1.88 3.51001 4.2 3.51001H12.81C15.13 3.51001 17.01 5.38999 17.01 7.70999Z" fill="#FEDD8D"/>
<path d="M17.01 10.8V23.7C17.01 26.02 15.13 27.9 12.81 27.9H4.2C1.88 27.9 0 26.02 0 23.7V10.8H17.01Z" fill="#FFC722"/>
<path d="M11.4199 18.28C11.4199 18.4 11.3999 18.52 11.3699 18.63C11.3599 18.67 11.3499 18.7 11.3299 18.73C11.3299 18.75 11.3199 18.76 11.3099 18.78C11.2899 18.81 11.2799 18.85 11.2599 18.88C11.2599 18.89 11.2399 18.91 11.2299 18.92C11.2299 18.92 11.2299 18.92 11.2299 18.93C11.2299 18.94 11.2099 18.95 11.2099 18.96C11.2099 18.97 11.1899 18.99 11.1799 19C11.1599 19.03 11.1299 19.06 11.1099 19.08H11.0999L6.55994 23.63C6.09994 24.09 5.35994 24.09 4.90994 23.63C4.44994 23.17 4.44994 22.43 4.90994 21.98L7.46995 19.42H5.98994C4.94994 19.42 4.42994 18.16 5.15994 17.43L9.73994 12.85C10.1999 12.39 10.9299 12.39 11.3899 12.85C11.6199 13.08 11.7299 13.38 11.7299 13.68C11.7299 13.98 11.6199 14.28 11.3899 14.51L8.79994 17.1H10.2799C10.9199 17.1 11.4499 17.62 11.4499 18.27L11.4199 18.28Z" fill="white"/>
</svg>
