<?xml version="1.0" encoding="UTF-8"?>
<svg id="Layer_1" data-name="Layer 1" xmlns="http://www.w3.org/2000/svg" viewBox="0 0 600 600">
  <defs>
    <style>
      .cls-1 {
        fill: #fd7e14;
      }

      .cls-2 {
        fill: #ffc107;
      }

      .cls-3 {
        fill: #fff;
      }

      .cls-4 {
        fill: #8ed1fc;
      }
    </style>
  </defs>
  <path class="cls-4" d="M251.21,1.02h112.91c16.56,0,30,13.44,30,30v67.59h-172.91V31.02c0-16.56,13.44-30,30-30Z"/>
  <path class="cls-2" d="M489.85,166.03v66.3H125.48v-66.3c0-49.71,40.3-90,90-90h184.37c49.7,0,90,40.29,90,90Z"/>
  <path class="cls-1" d="M489.85,232.33v276.37c0,49.7-40.3,90-90,90h-184.37c-49.7,0-90-40.3-90-90V232.33h364.37Z"/>
  <path class="cls-3" d="M370.08,392.31c0,2.59-.39,5.08-1.12,7.43-.24.76-.51,1.51-.82,2.24-.02.07-.05.14-.09.2-.14.33-.28.65-.44.97-.35.73-.73,1.43-1.15,2.12-.19.32-.4.64-.61.95-.05.1-.12.19-.2.29-.16.25-.34.49-.52.73-.02.04-.06.09-.1.13-.21.29-.43.57-.66.84-.5.6-1.03,1.19-1.59,1.75l-.24.24-97.26,97.27c-9.77,9.76-25.6,9.76-35.36,0-9.76-9.77-9.76-25.6,0-35.36l54.8-54.8h-31.79c-22.27,0-33.42-26.93-17.67-42.68l98.18-98.18c9.76-9.77,25.59-9.77,35.35,0,4.89,4.88,7.33,11.28,7.33,17.68s-2.44,12.79-7.33,17.67l-55.5,55.51h31.79c13.8,0,25,11.19,25,25Z"/>
</svg>