<svg width="28" height="28" viewBox="0 0 28 28" fill="none" xmlns="http://www.w3.org/2000/svg">
<path d="M11.2088 18.52C11.9988 23.16 9.73876 26.1 8.24876 27.48C8.06876 27.64 8.19877 27.95 8.40877 27.93C8.44877 27.93 19.4288 27.93 19.4688 27.93C19.6688 27.95 19.7988 27.64 19.6288 27.48C18.1388 26.1 15.8788 23.17 16.6688 18.52C17.8188 11.76 21.4088 11.68 21.4088 11.68H6.47876C6.47876 11.68 10.0688 11.76 11.2188 18.52H11.2088Z" fill="#FFC722"/>
<path d="M9.27874 0H2.51874C0.978741 0 -0.201265 1.36998 0.0287355 2.88998L0.888736 8.67999C1.06874 9.91999 2.12874 10.83 3.37874 10.83H8.41873C9.66873 10.83 10.7287 9.90999 10.9087 8.67999L11.7687 2.88998C11.9987 1.36998 10.8187 0 9.27874 0Z" fill="#FFC722"/>
<path d="M25.3488 0H18.5888C17.0488 0 15.8688 1.36998 16.0988 2.88998L16.9588 8.67999C17.1388 9.91999 18.1988 10.83 19.4488 10.83H24.4888C25.7388 10.83 26.7988 9.90999 26.9788 8.67999L27.8388 2.88998C28.0688 1.36998 26.8888 0 25.3488 0Z" fill="#FFC722"/>
<path d="M24.4388 5.19L23.5888 10.9H4.27883L3.42882 5.19C3.01882 2.46 5.13883 0.019989 7.88883 0.019989H19.9688C22.7288 0.019989 24.8388 2.47 24.4288 5.19H24.4388Z" fill="#FEDD8D"/>
<path d="M23.5888 10.9L23.5588 11.09C23.5288 11.3 23.4888 11.51 23.4388 11.72C22.4788 16.17 18.5388 19.39 13.9288 19.39C9.31879 19.39 5.37879 16.17 4.41879 11.72C4.36879 11.51 4.3388 11.3 4.2988 11.09L4.2688 10.9H23.5788H23.5888Z" fill="#FFC722"/>
<path d="M20.5888 1.16998H7.28882C6.59846 1.16998 6.03882 1.72963 6.03882 2.41998V2.42999C6.03882 3.12035 6.59846 3.67999 7.28882 3.67999H20.5888C21.2792 3.67999 21.8388 3.12035 21.8388 2.42999V2.41998C21.8388 1.72963 21.2792 1.16998 20.5888 1.16998Z" fill="#8ED1FC"/>
</svg>
