<?xml version="1.0" encoding="UTF-8"?>
<svg id="Layer_1" data-name="Layer 1" xmlns="http://www.w3.org/2000/svg" viewBox="0 0 600 600">
  <defs>
    <style>
      .cls-1 {
        fill: #fd7e14;
      }

      .cls-2 {
        fill: #ffc107;
      }

      .cls-3 {
        fill: #8ed1fc;
      }
    </style>
  </defs>
  <path class="cls-1" d="M242,396.85c16.89,99.43-31.45,162.23-63.4,191.82-3.75,3.48-1.04,10.11,3.34,9.63.95-.1,235.98-.1,236.93,0,4.38.48,7.09-6.15,3.34-9.63-31.95-29.59-80.28-92.39-63.4-191.82,24.59-144.8,101.44-146.57,101.44-146.57H140.56s76.85,1.77,101.44,146.57Z"/>
  <g>
    <path class="cls-1" d="M200.58.16H55.92C22.93.16-2.35,29.46,2.49,62.08l18.41,123.98c3.93,26.47,26.66,46.07,53.43,46.07h107.84c26.77,0,49.5-19.6,53.43-46.07l18.41-123.98C258.86,29.46,233.57.16,200.58.16Z"/>
    <path class="cls-1" d="M544.88.16h-144.66c-32.99,0-58.27,29.3-53.43,61.92l18.41,123.98c3.93,26.47,26.66,46.07,53.43,46.07h107.84c26.77,0,49.5-19.6,53.43-46.07l18.41-123.98C603.16,29.46,577.87.16,544.88.16Z"/>
  </g>
  <path class="cls-2" d="M525.34,111.24l-18.16,122.3H93.62l-18.15-122.3C66.79,52.88,112.02.45,171.03.45h258.75c59.01,0,104.22,52.43,95.56,110.79Z"/>
  <path class="cls-1" d="M507.18,233.54l-.61,4.13c-.67,4.56-1.5,9.08-2.47,13.54-20.56,95.24-105.02,164.28-203.7,164.28s-183.13-69.04-203.7-164.28c-.97-4.46-1.79-8.98-2.47-13.54l-.61-4.13h413.56Z"/>
  <rect class="cls-3" x="131.18" y="25.25" width="338.44" height="53.67" rx="26.84" ry="26.84"/>
</svg>