<svg width="24" height="28" viewBox="0 0 24 28" fill="none" xmlns="http://www.w3.org/2000/svg">
<path d="M19.7001 4.66254V10.0925H3.61011V4.66254C3.61011 3.59254 4.9601 3.12252 5.6301 3.96252L6.9201 5.61252C7.4601 6.30252 8.54011 6.14254 8.86011 5.32254L10.6101 0.832518C10.9801 -0.127482 12.3401 -0.127482 12.7101 0.832518L14.4601 5.32254C14.7801 6.13254 15.8601 6.29252 16.4001 5.61252L17.6901 3.96252C18.3501 3.12252 19.7101 3.58254 19.7101 4.66254H19.7001Z" fill="#8ED1FC"/>
<path d="M23.31 6.58251V10.7625H0V6.58251C0 5.03251 1.96001 4.35253 2.92001 5.57253L4.79001 7.96251C5.57001 8.96251 7.14001 8.7225 7.60001 7.5425L10.13 1.0425C10.67 -0.3475 12.64 -0.3475 13.18 1.0425L15.71 7.5425C16.17 8.7225 17.74 8.95251 18.52 7.96251L20.39 5.57253C21.35 4.35253 23.31 5.03251 23.31 6.58251Z" fill="#FEDD8D"/>
<path d="M23.31 10.7625V23.4525C23.31 25.7725 21.42 27.6525 19.1 27.6525H4.21002C1.89002 27.6525 0.0100098 25.7725 0.0100098 23.4525V10.7625H23.31Z" fill="#FFC722"/>
<path d="M21.72 10.5525V13.2125C21.72 13.9025 21.16 14.4625 20.47 14.4625C19.78 14.4625 19.22 13.9025 19.22 13.2125V10.5725C19.22 9.88254 19.76 9.31251 20.45 9.29251C20.81 9.29251 21.13 9.42254 21.36 9.66254C21.59 9.89254 21.73 10.2025 21.73 10.5525H21.72Z" fill="white"/>
<path d="M21.7199 17.2125V23.8225C21.7199 24.5125 21.18 25.0925 20.49 25.1025C20.14 25.1025 19.81 24.9625 19.58 24.7325C19.35 24.5025 19.21 24.1925 19.21 23.8425V17.2025C19.21 16.5125 19.77 15.9525 20.46 15.9525C21.15 15.9525 21.71 16.5125 21.71 17.2025L21.7199 17.2125Z" fill="white"/>
</svg>
