<?xml version="1.0" encoding="UTF-8"?>
<svg id="Layer_1" data-name="Layer 1" xmlns="http://www.w3.org/2000/svg" viewBox="0 0 600 600">
  <defs>
    <style>
      .cls-1 {
        fill: #fd7e14;
      }

      .cls-2 {
        fill: #ffc107;
      }

      .cls-3 {
        fill: #fff;
      }

      .cls-4 {
        fill: #8ed1fc;
      }
    </style>
  </defs>
  <path class="cls-4" d="M472.84,103.18l-.02,116.19H128.22l-.02-116.19c0-22.96,29-32.99,43.18-14.93l27.67,35.28c11.56,14.73,34.75,11.29,41.53-6.15l37.42-96.17c7.99-20.53,37.05-20.53,45.03,0l37.42,96.17c6.79,17.44,29.98,20.88,41.53,6.15l27.67-35.28c14.17-18.07,43.18-8.04,43.18,14.93Z"/>
  <path class="cls-2" d="M550.33,144.16l-.03,89.6H51.17l-.03-89.6c-.01-33.26,42.01-47.79,62.54-21.62l40.08,51.1c16.74,21.33,50.33,16.35,60.16-8.91l54.2-139.3c11.57-29.74,53.66-29.74,65.23,0l54.2,139.3c9.83,25.26,43.42,30.24,60.16,8.91l40.08-51.1c20.53-26.17,62.55-11.64,62.54,21.62Z"/>
  <path class="cls-1" d="M550.3,233.76l-.07,271.8c-.02,49.69-40.31,89.97-90,89.97H141.25c-49.69,0-89.98-40.28-90-89.97l-.07-271.8h499.13Z"/>
  <g>
    <path class="cls-3" d="M516.2,229.29v57.01c0,14.82-12.01,26.83-26.83,26.83h0c-14.82,0-26.83-12.01-26.83-26.83v-56.47c0-14.69,11.58-27.06,26.26-27.36,7.63-.16,14.56,2.87,19.55,7.85,4.85,4.85,7.86,11.56,7.86,18.97Z"/>
    <path class="cls-3" d="M516.2,371.83v141.58c0,14.75-11.63,27.24-26.38,27.49-7.59.13-14.48-2.9-19.43-7.86-4.86-4.85-7.86-11.57-7.86-18.98v-142.24c0-14.82,12.01-26.83,26.83-26.83h0c14.82,0,26.83,12.01,26.83,26.83Z"/>
  </g>
</svg>