<svg width="18" height="18" viewBox="0 0 18 18" fill="none" xmlns="http://www.w3.org/2000/svg">
<path d="M8.57 17.16C6.29 17.16 4.12999 16.27 2.50999 14.66L1.78999 13.98L1.81 16.23C1.81 16.72 1.42 17.13 0.93 17.13H0.919998C0.429998 17.13 0.0299988 16.73 0.0299988 16.25L0 11.89C0 11.65 0.0899945 11.43 0.259995 11.25C0.429995 11.08 0.659999 10.99 0.889999 10.99H5.28C5.77 10.99 6.17 11.39 6.17 11.88C6.17 12.37 5.77 12.77 5.28 12.77H3.12L3.75999 13.37H3.77C5.06 14.67 6.75999 15.37 8.57999 15.37C10.23 15.37 11.81 14.77 13.05 13.69C14.28 12.62 15.08 11.15 15.31 9.53998C15.37 9.09998 15.75 8.77002 16.19 8.77002C16.23 8.77002 16.27 8.77002 16.32 8.77002C16.81 8.84002 17.15 9.29003 17.08 9.78003C16.79 11.8 15.78 13.67 14.23 15.02C12.67 16.39 10.66 17.14 8.57999 17.14L8.57 17.16ZM0.959999 8.37C0.959999 8.37 0.869994 8.37 0.829994 8.37C0.589994 8.34 0.389998 8.21002 0.239998 8.02002C0.0999979 7.83002 0.0399997 7.58999 0.0699997 7.35999C0.36 5.33999 1.37 3.47 2.92 2.12C4.48 0.749995 6.49 0 8.57 0C10.86 0 13.01 0.89 14.63 2.5L15.37 3.20001V0.890015C15.37 0.400015 15.77 0 16.26 0C16.75 0 17.15 0.400015 17.15 0.890015V5.28003C17.15 5.77003 16.75 6.16998 16.26 6.16998H11.87C11.38 6.16998 10.98 5.77003 10.98 5.28003C10.98 4.79003 11.38 4.39001 11.87 4.39001H14.03L13.39 3.78998L13.37 3.77002C12.08 2.49002 10.38 1.78003 8.56 1.78003C6.91 1.78003 5.33 2.38002 4.09 3.46002C2.86 4.53002 2.05999 5.99999 1.82999 7.60999V7.63C1.75999 8.06001 1.39 8.38 0.949997 8.38L0.959999 8.37Z" fill="#231F20"/>
</svg>
