<svg width="43" height="29" viewBox="0 0 43 29" fill="none" xmlns="http://www.w3.org/2000/svg">
<path d="M34.1645 4.8361C33.4021 4.8361 32.7602 5.47826 32.7602 6.2408C32.7602 7.00335 33.4021 7.64548 34.1645 7.64548C34.9268 7.64548 35.5688 7.00335 35.5688 6.2408C35.5688 5.47826 34.9268 4.8361 34.1645 4.8361ZM40.6844 4.63545V4.55516L37.7454 1.61537C36.6621 0.571892 35.2879 0 33.8034 0C31.3459 0 29.089 1.65552 28.4069 3.98328C28.3266 4.30435 28.2464 4.62541 28.2464 4.94648V5.06688C28.1661 9.86286 28.126 10.7057 28.126 10.8261C28.0458 11.3478 27.9655 11.9498 27.5643 12.7224C25.8691 5.63879 20.6832 0.682267 14.725 0.682267C8.76681 0.682267 2.80859 6.40133 1.56479 14.2876L1.2438 16.9064C0.962943 18.2308 1.64503 19.6054 2.85874 20.1672C2.85874 20.1672 2.97911 20.1672 3.01923 20.2475C3.54083 20.5284 4.10254 20.7692 4.63417 21.01L0 28.9866H7.85402L11.3948 23.3478C12.5584 23.5886 13.6919 23.7492 14.8153 23.8294C15.5375 23.8696 16.2597 23.9097 16.9117 23.9097C18.9279 23.9097 20.8939 23.709 22.7094 23.3077L26.2101 28.9465H34.4654L29.3096 20.6087C29.8713 20.2073 30.4331 19.806 30.9246 19.3645C33.3821 17.107 34.2648 14.8595 34.666 13.2843L37.3643 13.204C39.3804 13.1639 41.1458 11.9197 41.868 10.0234C42.5902 8.12708 42.1489 6.04012 40.7045 4.6254L40.6844 4.63545ZM14.725 2.98995C20.1215 2.98995 24.5852 7.98662 25.6384 14.6689H3.82169C4.86488 8.02675 9.33856 2.98995 14.7351 2.98995H14.725ZM37.3041 10.9164L32.6699 10.9966V11.4381C32.5094 12.602 32.1884 15.0602 29.3698 17.6388C28.4871 18.4816 27.3536 19.1639 26.1098 19.7759L30.3729 26.6588H27.474L23.7326 20.6589C21.6763 21.2609 19.3492 21.6221 16.8917 21.6221C14.4341 21.6221 15.6077 21.6221 14.9156 21.5418C13.3007 21.4214 11.7359 21.1405 10.2814 20.7391L6.54 26.699H3.96212L7.94429 19.9766C6.32935 19.4147 4.96518 18.7726 3.96212 18.2408H3.84175C3.15966 17.9197 3.4004 16.8762 4.16273 16.8762H25.5782C26.3807 16.8762 27.1932 16.5953 27.8351 16.0334C30.0118 14.0167 30.2525 12.2107 30.413 11.1973C30.4932 10.5953 30.5334 5.95986 30.5735 5.03678C30.5735 4.91638 30.5735 4.8361 30.6136 4.7157C31.2957 2.41804 34.3149 1.49497 36.1706 3.31102L39.1497 6.25082C40.885 7.94647 39.7114 10.8863 37.294 10.9264L37.3041 10.9164Z" fill="black"/>
</svg>
