<svg width="140" height="93" viewBox="0 0 140 93" fill="none" xmlns="http://www.w3.org/2000/svg">
<path d="M128.269 0H11.7309C5.25211 0 0 5.27746 0 11.7875V81.2124C0 87.7225 5.25211 93 11.7309 93H128.269C134.748 93 140 87.7225 140 81.2124V11.7875C140 5.27746 134.748 0 128.269 0Z" fill="#E4F1F9"/>
<path d="M104.475 41.6694H35.2554V57.0554H104.475V41.6694Z" fill="#8ED1FC"/>
<path d="M54.4307 31.7216C54.4307 26.372 50.0992 22.0353 44.756 22.0353C39.4128 22.0353 35.0812 26.372 35.0812 31.7216V68.2402C35.0812 73.5898 39.4128 77.9265 44.756 77.9265C50.0992 77.9265 54.4307 73.5898 54.4307 68.2402V31.7216Z" fill="#FD7E14"/>
<path d="M35.1616 39.4498C35.1616 36.363 32.663 33.8607 29.5808 33.8607C26.4986 33.8607 24 36.363 24 39.4498V60.5154C24 63.6022 26.4986 66.1045 29.5808 66.1045C32.663 66.1045 35.1616 63.6022 35.1616 60.5154V39.4498Z" fill="#FFC107"/>
<path d="M85.1535 68.2049C85.1535 73.5544 89.4851 77.8911 94.8283 77.8911C100.171 77.8911 104.503 73.5544 104.503 68.2049V31.6862C104.503 26.3367 100.171 22 94.8283 22C89.4851 22 85.1535 26.3367 85.1535 31.6862V68.2049Z" fill="#FD7E14"/>
<path d="M104.422 60.4766C104.422 63.5634 106.921 66.0657 110.003 66.0657C113.085 66.0657 115.584 63.5634 115.584 60.4766V39.411C115.584 36.3242 113.085 33.8219 110.003 33.8219C106.921 33.8219 104.422 36.3242 104.422 39.411V60.4766Z" fill="#FFC107"/>
</svg>
