<svg width="140" height="92" viewBox="0 0 140 92" fill="none" xmlns="http://www.w3.org/2000/svg">
<path d="M128.269 0H11.7309C5.25211 0 0 5.22071 0 11.6608V80.3392C0 86.7793 5.25211 92 11.7309 92H128.269C134.748 92 140 86.7793 140 80.3392V11.6608C140 5.22071 134.748 0 128.269 0Z" fill="#E4F1F9"/>
<path d="M68.336 62.0004L67.3365 67.2227C67.2796 67.5253 67.5069 67.8075 67.8112 67.8075H79.1542C79.4617 67.8075 79.6891 67.5185 79.6255 67.2159L78.5391 62.0106C78.4755 61.7046 78.7029 61.419 79.0104 61.4156L88.8156 61.4088C89.2001 61.4088 89.4307 60.9736 89.2201 60.6473L86.0877 55.8058C85.8771 55.4794 86.1044 55.0476 86.4888 55.0442L92.5398 55C93.4324 55.0272 94.2715 55.3332 94.9602 55.901L100.322 60.5418C100.663 60.8376 100.459 61.4054 100.012 61.4088L90.6643 61.4259C90.2799 61.4259 90.0492 61.8644 90.2632 62.1908L93.8001 67.5933C93.8904 67.7293 94.0408 67.8109 94.2013 67.8109L108.54 67.8007C108.653 67.8007 108.764 67.8415 108.851 67.9163L118.522 76.2257C119.017 76.6506 119.107 77.4701 118.886 78.0004C118.666 78.5308 118.131 79 117.365 79H29.6435C28.8244 79 28.2761 78.473 28.0822 77.8848C27.8315 77.1232 28.1792 76.4943 28.7843 75.9775L38.1716 67.9197C38.2585 67.8449 38.3688 67.8041 38.4825 67.8041L52.8175 67.8143C52.978 67.8143 53.1318 67.7327 53.2187 67.5967L56.749 62.1976C56.9629 61.8712 56.7323 61.4361 56.3478 61.4327L47.014 61.4088C46.566 61.4088 46.3621 60.841 46.7031 60.5452L52.2225 55.765C52.2392 55.7514 52.2593 55.7344 52.276 55.7242C52.8677 55.3332 53.5497 55.0918 54.2551 55.0102C54.2751 55.0102 54.2985 55.0068 54.3186 55.0102L60.52 55.0544C60.9044 55.0544 61.1317 55.4896 60.9211 55.816L57.792 60.6609C57.5814 60.9873 57.8121 61.4224 58.1965 61.4224L67.8647 61.4293C68.1689 61.4293 68.3962 61.7114 68.3394 62.014L68.336 62.0004ZM76.8341 55.0204H70.168C69.9407 55.0204 69.7435 55.1836 69.6967 55.4114L68.5734 60.8207C68.5099 61.1266 68.7405 61.4122 69.0448 61.4122H77.8303C78.1312 61.4122 78.3619 61.1335 78.305 60.8309L77.3088 55.4182C77.2654 55.187 77.0681 55.017 76.8341 55.017V55.0204Z" fill="#40A5DD"/>
<path d="M55.7146 56.4528L53.3501 56.8666L48 24.4138L50.3645 24L55.7146 56.4528ZM91.2854 56.5861L93.6499 57L99 24.5472L96.6355 24.1334L91.2854 56.5861Z" fill="#40A5DD"/>
<path d="M99.8879 34H47.1088C43.9864 34 40.8142 31.4433 39.9913 28.1486L38.2327 21.1216C37.2704 17.2751 39.3775 14 42.9877 14H104.012C107.623 14 109.73 17.2751 108.767 21.1216L107.009 28.1486C106.182 31.4433 103.014 34 99.8912 34H99.8879Z" fill="#FFC107"/>
</svg>
