<svg width="140" height="93" viewBox="0 0 140 93" fill="none" xmlns="http://www.w3.org/2000/svg">
<path d="M128.269 0.296509H11.7309C5.25212 0.296509 0 5.51722 0 11.9573V80.6357C0 87.0758 5.25212 92.2965 11.7309 92.2965H128.269C134.748 92.2965 140 87.0758 140 80.6357V11.9573C140 5.51722 134.748 0.296509 128.269 0.296509Z" fill="#E4F1F9"/>
<path d="M42.815 42.9208L46.0276 57.0532L49.3006 44.8534C49.3409 44.6856 49.4214 44.4004 49.5354 43.9944C49.6494 43.5884 49.7701 43.2194 49.8942 42.8872C50.3939 41.5753 51.306 40.921 52.6374 40.921C53.3248 40.921 53.8681 41.0653 54.2739 41.3572C54.6797 41.6491 55.0016 42.0652 55.2397 42.6054C55.4778 43.1456 55.7327 43.9374 56.0043 44.9775L59.2471 57.0532L62.5201 42.6087C62.6442 42.0685 62.8991 41.6525 63.2847 41.3605C63.6704 41.0686 64.0996 40.9244 64.5792 40.9244C65.2231 40.9244 65.7395 41.1324 66.1218 41.5485C66.5075 41.9645 66.6986 42.4342 66.6986 42.9509C66.6986 43.3267 66.5846 44.0012 66.3565 44.9775L62.3659 61.1064C62.1177 62.1264 61.7723 62.8646 61.3364 63.3209C60.9004 63.7772 60.2867 64.0087 59.4953 64.0087C58.8916 64.0087 58.4154 63.9047 58.06 63.6967C57.7079 63.4887 57.3893 63.1162 57.1076 62.5727C56.8259 62.0325 56.5408 61.2205 56.2491 60.1401L52.6307 46.7256L48.64 61.4218C48.3918 62.274 48.0431 62.9183 47.5937 63.3578C47.1477 63.794 46.5373 64.0121 45.7694 64.0121C45.0014 64.0121 44.371 63.794 43.9451 63.3578C43.5192 62.9216 43.2006 62.2975 42.9927 61.4855L38.9081 44.9809C38.6801 44.0246 38.5661 43.3368 38.5661 42.9208C38.5661 42.4007 38.7639 41.9377 39.1596 41.5317C39.5554 41.1257 40.0517 40.9244 40.6553 40.9244C41.2589 40.9244 41.7251 41.0854 42.0571 41.4075C42.3891 41.7296 42.6372 42.2329 42.8049 42.9208H42.815Z" fill="#FD7E14"/>
<path d="M64.6027 77.0272C64.6027 78.9599 64.2941 80.718 63.6838 82.2984C63.0701 83.8787 62.1714 85.1805 60.9876 86.1972C59.1365 87.7977 56.7152 88.5996 53.7206 88.5996C50.7259 88.5996 48.3348 87.8312 46.487 86.2912C45.2798 85.2913 44.3609 83.9995 43.7271 82.4058C43.0933 80.8153 42.7747 79.0639 42.7747 77.148C42.7747 74.7758 43.2006 72.719 44.0524 70.9709C44.9042 69.2228 46.1416 67.8774 47.7647 66.9312C49.3878 65.985 51.3295 65.5119 53.5965 65.5119C55.9875 65.5119 58.0097 65.9951 59.663 66.9614C61.3162 67.9277 62.5537 69.2765 63.3753 71.0011C64.1969 72.7291 64.606 74.7356 64.606 77.0239L64.6027 77.0272ZM48.8546 82.6406C49.4147 83.409 50.1189 83.9995 50.9606 84.4021C51.8023 84.8081 52.7011 85.0095 53.6568 85.0095C54.7367 85.0095 55.736 84.7511 56.6515 84.231C57.567 83.7109 58.3048 82.9828 58.8648 82.0467C59.6328 80.7583 60.0184 79.0941 60.0184 77.0541C60.0184 74.6416 59.4685 72.7123 58.3651 71.2662C57.2618 69.8201 55.7025 69.0987 53.687 69.0987C51.8158 69.0987 50.2933 69.7697 49.1195 71.1119C47.9458 72.454 47.359 74.4336 47.359 77.0541C47.359 79.4262 47.8586 81.2884 48.8546 82.6372V82.6406Z" fill="#FFC107"/>
<path d="M82.8759 66.448C84.1033 66.9278 85.0389 67.6761 85.6828 68.6961C86.3267 69.7161 86.6486 70.8401 86.6486 72.0647C86.6486 75.3294 84.7572 77.3594 80.9745 78.1479C82.3662 78.8961 83.7277 80.3322 85.059 82.4527C86.3904 84.6169 87.0544 86.063 87.0544 86.7911C87.0544 87.2474 86.8532 87.6635 86.4474 88.0392C86.0416 88.415 85.505 88.5996 84.8411 88.5996C84.4655 88.5996 84.1435 88.5425 83.8752 88.4285C83.6036 88.3144 83.3085 88.0594 82.9866 87.6635C82.6646 87.2675 82.2421 86.6435 81.7223 85.7912L79.8812 82.7346C79.1133 81.4663 78.4627 80.567 77.9328 80.0369C77.403 79.5068 76.8765 79.1377 76.3567 78.9297C75.9409 78.7619 75.2131 78.6814 74.1736 78.6814H72.9562V85.1101C72.9562 85.9825 72.9026 86.63 72.802 87.0461C72.6343 87.6299 72.3761 88.0359 72.024 88.2641C71.6719 88.4922 71.2124 88.6063 70.6524 88.6063C69.6128 88.6063 68.9589 88.15 68.6872 87.234C68.543 86.7341 68.4693 86.016 68.4693 85.0799V69.3537C68.4693 68.6256 68.4894 68.1055 68.533 67.7935C68.5732 67.4814 68.6671 67.213 68.8147 66.9815C69.1064 66.5252 69.4552 66.2266 69.861 66.0924C70.2667 65.9582 70.9777 65.891 71.9971 65.891H78.7645C80.572 65.891 81.9436 66.0789 82.8793 66.4514L82.8759 66.448ZM82.0644 72.313C82.0644 71.6688 81.8933 71.1119 81.5513 70.6455C81.2092 70.1791 80.7967 69.8503 80.3205 69.6624C79.8645 69.4745 78.9054 69.3805 77.4533 69.3805H72.9629V75.4637H77.1716C78.8953 75.4637 80.1428 75.2053 80.9141 74.6852C81.6821 74.1652 82.0677 73.3733 82.0677 72.313H82.0644Z" fill="#FFC107"/>
<path d="M106.951 68.29C108.986 70.2025 110.006 73.1586 110.006 77.1513C110.006 79.0236 109.778 80.624 109.318 81.9561C108.862 83.2881 108.165 84.4625 107.229 85.4825C106.357 86.4186 105.338 87.1098 104.174 87.5561C103.01 88.0023 101.511 88.2271 99.6837 88.2271H94.1336C93.2382 88.2271 92.6245 88.16 92.2925 88.0258C91.9605 87.8916 91.6487 87.6567 91.3569 87.3245C91.1691 87.1165 91.0484 86.8448 90.9981 86.5126C90.9444 86.1804 90.921 85.6067 90.921 84.798V69.0416C90.921 68.3773 90.9578 67.8874 91.0316 67.5754C91.1054 67.2633 91.2328 66.9949 91.4206 66.7634C91.7124 66.4312 92.0175 66.2031 92.3395 66.0755C92.6614 65.9514 93.2282 65.8876 94.0397 65.8876H99.7776C101.501 65.8876 102.906 66.0789 103.986 66.4648C105.066 66.8506 106.055 67.4579 106.947 68.29H106.951ZM103.52 83.3284C104.788 82.1239 105.421 80.0335 105.421 77.0574C105.421 75.1214 105.157 73.6216 104.627 72.5479C104.097 71.4776 103.383 70.6488 102.491 70.0683C101.803 69.612 100.515 69.3805 98.624 69.3805H95.4113V84.7309H99.0599C100.163 84.7309 101.049 84.6202 101.726 84.4021C102.4 84.184 103 83.825 103.52 83.3251V83.3284Z" fill="#FFC107"/>
<path d="M50.7561 0H53.8748C56.8326 0 59.2337 2.40238 59.2337 5.36173V8.23721H45.3972V5.36173C45.3972 2.40238 47.7983 0 50.7561 0Z" fill="#8ED1FC"/>
<path d="M37.6472 45.4272L25.0749 29.7983C23.7872 28.1978 24.0186 25.8659 25.5947 24.5473L40.9974 11.6764C42.8485 10.1296 45.652 10.7 46.7553 12.844L48.1604 15.5786C49.0424 17.2931 48.4891 19.3936 46.876 20.4505L35.0918 28.1777L43.7003 40.9647C44.7801 42.5685 44.4682 44.7326 42.9793 45.9674C41.3629 47.3061 38.9618 47.0646 37.6472 45.4305V45.4272Z" fill="#8ED1FC"/>
<path d="M66.987 45.4272L79.5593 29.7983C80.847 28.1978 80.6156 25.8659 79.0395 24.5473L63.6368 11.6764C61.7857 10.1296 58.9822 10.7 57.8789 12.844L56.4738 15.5786C55.5918 17.2931 56.1451 19.3936 57.7581 20.4505L69.5424 28.1777L60.9339 40.9647C59.8541 42.5685 60.166 44.7326 61.6549 45.9674C63.2713 47.3061 65.6724 47.0646 66.987 45.4305V45.4272Z" fill="#8ED1FC"/>
<path d="M57.946 7.84467H46.6849C42.6436 7.84467 39.3676 11.1225 39.3676 15.1659C39.3676 19.2093 42.6436 22.4871 46.6849 22.4871H57.946C61.9872 22.4871 65.2633 19.2093 65.2633 15.1659C65.2633 11.1225 61.9872 7.84467 57.946 7.84467Z" fill="#40A5DD"/>
</svg>
