<svg width="140" height="93" viewBox="0 0 140 93" fill="none" xmlns="http://www.w3.org/2000/svg">
<path d="M128.269 0H11.7309C5.25211 0 0 5.27746 0 11.7875V81.2124C0 87.7225 5.25211 93 11.7309 93H128.269C134.748 93 140 87.7225 140 81.2124V11.7875C140 5.27746 134.748 0 128.269 0Z" fill="#E4F1F9"/>
<g clip-path="url(#clip0_385_153)">
<path d="M108.319 55.6474C108.466 51.7111 106.091 48.0035 102.385 46.9787L93.3763 44.4966C92.7988 40.3159 91.213 36.0442 88.5971 32.1894C87.5357 30.6381 86.3558 29.209 85.079 27.9429C84.7044 27.5668 84.3548 27.1468 84.0582 26.7018C82.1915 23.9376 82.0698 20.1486 83.7617 17.2779L83.8959 17.0617C85.104 15.012 87.0644 13.6519 89.2682 13.3416C91.469 13.0188 93.6853 13.7741 95.3367 15.3912C97.3907 17.4127 99.298 19.7067 100.977 22.1857C106.737 30.6914 109.559 40.858 108.913 50.821C108.806 52.4663 108.604 54.0835 108.323 55.6474H108.319Z" fill="#8ED1FC"/>
<path d="M88.6595 32.4746C88.5534 32.4746 88.4472 32.4213 88.3848 32.321C87.4077 30.7446 86.2964 29.2779 85.079 27.9616C84.7231 27.5793 84.3922 27.1468 84.0645 26.636C82.2383 23.6806 82.2664 19.7537 84.1332 16.861L84.2643 16.6511C85.6159 14.5764 87.7136 13.2601 90.0268 13.0344C92.3493 12.8088 94.628 13.6957 96.2825 15.4664C97.9869 17.2841 99.5883 19.3306 101.043 21.5495C101.14 21.6999 101.099 21.9005 100.952 21.9977C100.803 22.0948 100.603 22.0541 100.506 21.9068C99.0701 19.7192 97.4937 17.701 95.8143 15.9114C94.2972 14.2849 92.2119 13.4763 90.0923 13.68C87.9759 13.8838 86.0498 15.0935 84.8137 16.9989L84.6826 17.2089C82.9469 19.901 82.922 23.549 84.617 26.2912C84.9198 26.7645 85.232 27.1687 85.5597 27.5229C86.8053 28.8705 87.9447 30.3685 88.9404 31.9794C89.0341 32.1299 88.9873 32.3304 88.8374 32.4244C88.7844 32.4589 88.7251 32.4746 88.6689 32.4746H88.6595Z" fill="#3D9DD3"/>
<path d="M103.122 39.1594C101.914 36.2479 98.786 34.4271 95.5083 35.0601L87.5451 36.5958C85.6783 33.7783 82.9781 31.2586 79.6224 29.4252C78.2676 28.6825 76.8441 28.0901 75.4207 27.6451C74.9899 27.5104 74.5872 27.3349 74.2001 27.1343C71.784 25.8117 70.4136 23.1165 70.7882 20.4056L70.8163 20.1894C71.0847 18.262 72.1711 16.5508 73.8099 15.4978C75.4488 14.4448 77.4497 14.1752 79.3009 14.7425C81.6109 15.457 83.8803 16.4129 86.0561 17.5881C93.4824 21.631 99.1357 27.9836 101.983 35.4519C102.454 36.693 102.841 37.934 103.138 39.1719L103.125 39.1594H103.122Z" fill="#8ED1FC"/>
<path d="M79.663 29.6947C79.6068 29.6947 79.5506 29.6791 79.4975 29.6477C78.1864 28.8642 76.8192 28.2092 75.43 27.7047C74.9993 27.5511 74.5716 27.3505 74.1689 27.1123C71.6966 25.6237 70.3793 22.7248 70.885 19.901L70.9255 19.691C71.2939 17.6728 72.5113 15.9303 74.2626 14.918C76.0107 13.8932 78.1209 13.6957 80.05 14.3821C82.3444 15.1969 84.592 16.2625 86.7303 17.5505C90.2453 19.6597 93.3294 22.2923 95.8892 25.373C96.0047 25.5109 95.9859 25.7146 95.8486 25.8274C95.7112 25.9402 95.5083 25.9246 95.3959 25.7867C92.8799 22.7624 89.8551 20.1768 86.3994 18.1052C84.2986 16.8391 82.0916 15.7892 79.8378 14.9901C78.0865 14.3695 76.173 14.5482 74.5872 15.4758C72.9983 16.3941 71.8932 17.9736 71.5592 19.8101L71.5186 20.017C71.0598 22.5743 72.2585 25.2006 74.4967 26.5514C74.865 26.7676 75.2521 26.9494 75.6486 27.0904C77.0783 27.6106 78.483 28.2813 79.8284 29.0868C79.9814 29.1776 80.0313 29.3782 79.9408 29.5318C79.8815 29.6321 79.7722 29.6885 79.663 29.6885V29.6947Z" fill="#3D9DD3"/>
<path d="M107.823 58.3582C106.737 62.3227 104.467 65.9895 101.096 68.7662C99.3105 70.2361 97.3501 71.3549 95.2961 72.1227C94.4626 72.4048 93.6322 72.6618 92.7863 72.878C88.3005 74.0658 83.668 74.3197 79.1698 73.6051C70.9099 72.2826 64.1048 67.848 59.9936 61.135C59.3631 60.1101 58.8105 59.0603 58.3423 57.9665C57.1592 55.2713 56.4631 52.3974 56.2477 49.3919C56.0729 46.9098 57.2684 44.5655 59.3912 43.2587C60.6929 42.4501 62.2506 42.1398 63.7833 42.3561L63.9987 42.3843C66.4554 42.7353 68.4688 44.459 69.2898 46.7249C69.4771 47.2639 69.6113 47.8437 69.6519 48.436C69.7986 50.4857 70.4042 52.4005 71.45 54.0991C72.9671 56.5813 75.249 58.3739 77.9492 59.4238C78.2582 59.546 78.5923 59.6118 78.9169 59.6118C84.1675 59.6118 88.4254 54.1524 88.4254 47.4237C88.4254 40.6951 87.876 39.9962 83.5525 37.2445C81.0958 35.9627 78.2364 35.1291 75.1741 34.9003C74.5685 34.8596 73.9535 34.8314 73.3354 34.8314C71.7902 34.8314 70.2606 34.9787 68.7841 35.2764C68.3533 35.3704 67.8976 35.4112 67.4543 35.4112C64.7135 35.4112 62.2162 33.6843 61.2516 31.1239L61.1705 30.9201C60.4868 29.0993 60.6211 27.0779 61.5607 25.3667C62.5003 23.6556 64.1267 22.4552 66.0308 22.076C68.3408 21.6028 70.732 21.3615 73.1201 21.3489H73.3073C81.7545 21.3489 89.7427 24.2197 95.7986 29.4252C96.8069 30.2871 97.7309 31.1928 98.5925 32.1361C99.1419 32.5812 99.6414 33.1202 100.044 33.7533L100.609 34.6308L102.167 37.044L105.242 41.8014C108.519 46.869 109.284 52.9114 107.779 58.3708L107.833 58.3582H107.823Z" fill="#8ED1FC"/>
<path d="M78.2676 38.0155L69.499 46.8189L69.3117 46.7656L69.2836 46.7374C68.4782 44.4716 66.4492 42.7479 63.9924 42.3969L63.777 42.3687C62.2599 42.1524 60.7022 42.4752 59.3849 43.2712C57.2622 44.5781 56.0541 46.9255 56.2414 49.4045C56.4568 52.41 57.1686 55.2838 58.3361 57.9791L54.5776 61.7273L45.862 52.8957L45.6748 52.949C44.5884 53.9049 43.5926 55.2556 42.4532 56.1175C39.4721 58.3677 35.3359 56.0234 35.7137 52.3159C35.9415 50.0657 38.3733 48.5677 39.7405 46.9913L39.7936 46.8032L31 37.9591L39.7686 29.1683L40.0246 29.2216C41.5698 30.5284 43.0339 33.0231 45.194 33.2644C47.195 33.4932 49.1429 32.3085 49.7329 30.3529C50.7536 27.0215 47.7725 25.3636 45.8777 23.2607L45.8246 23.0727L54.6338 14.2693L63.443 23.0852C65.163 21.7501 66.5709 19.1897 68.934 18.9734C70.7601 18.8104 72.3865 19.8102 73.1232 21.3333C70.7195 21.3333 68.3284 21.5903 66.034 22.0604C64.1267 22.4521 62.5034 23.6525 61.5638 25.3511C60.6242 27.0622 60.4775 29.0868 61.1736 30.9045L61.2548 31.1082C62.2225 33.6687 64.7198 35.3955 67.4574 35.3955C70.1951 35.3955 68.344 35.3548 68.7873 35.2608C70.2638 34.963 71.7809 34.8157 73.3386 34.8157C74.8963 34.8157 74.5747 34.8439 75.1772 34.8847L78.2645 38.0124L78.2676 38.0155Z" fill="#FFC107"/>
<path d="M69.2711 46.7218C68.1973 45.7659 67.2171 44.4308 66.0902 43.5815C62.7188 41.0336 58.18 44.3619 59.5909 48.3546C60.1559 49.9592 62.3036 51.335 63.3775 52.6419L63.4305 52.8988L58.3423 57.9665C57.1592 55.2713 56.4631 52.3974 56.2477 49.3919C56.0729 46.9098 57.2684 44.5656 59.3912 43.2587C60.6929 42.4501 62.2506 42.1399 63.7833 42.3561L63.9987 42.3843C66.4554 42.7353 68.4688 44.459 69.2898 46.7249H69.2773L69.2711 46.7218Z" fill="#FFC107"/>
<path d="M67.4699 35.7214C64.5949 35.7214 61.979 33.9131 60.9644 31.2242L60.8927 31.011C60.1747 29.1087 60.3245 26.9839 61.3047 25.1975C62.3005 23.3986 64.0112 22.1387 65.9965 21.747C68.3689 21.2612 70.8381 21.0136 73.3354 21.0136C81.8512 21.0136 89.9113 23.9032 96.0359 29.1526C97.0286 30.0019 97.9775 30.9233 98.8578 31.8886C98.9765 32.0202 98.9702 32.2239 98.836 32.3461C98.7049 32.4652 98.502 32.4589 98.3802 32.3242C97.5187 31.3777 96.5884 30.4751 95.6145 29.6415C89.6053 24.4923 81.692 21.6561 73.3323 21.6561C70.8756 21.6561 68.4501 21.8974 66.1182 22.3769C64.3171 22.7342 62.7687 23.8749 61.8635 25.5078C60.9738 27.128 60.8396 29.0523 61.4951 30.7917L61.5669 31.0048C62.4847 33.4305 64.854 35.0696 67.4637 35.0696C67.9163 35.0696 68.3408 35.0257 68.7248 34.9411C70.2201 34.6402 71.7746 34.4898 73.3448 34.4898C73.5227 34.4898 73.6663 34.6339 73.6663 34.8126C73.6663 34.9912 73.5227 35.1354 73.3448 35.1354C71.8152 35.1354 70.3043 35.2827 68.8559 35.5741C68.4314 35.6682 67.96 35.7152 67.4637 35.7152L67.4699 35.7214Z" fill="#3D9DD3"/>
</g>
<defs>
<clipPath id="clip0_385_153">
<rect width="78" height="61" fill="white" transform="translate(31 13)"/>
</clipPath>
</defs>
</svg>
