<svg width="140" height="92" viewBox="0 0 140 92" fill="none" xmlns="http://www.w3.org/2000/svg">
<path d="M128.269 0H11.7309C5.25212 0 0 5.22072 0 11.6608V80.3392C0 86.7793 5.25212 92 11.7309 92H128.269C134.748 92 140 86.7793 140 80.3392V11.6608C140 5.22072 134.748 0 128.269 0Z" fill="#E4F1F9"/>
<path d="M51.5005 27.6926L65.1157 61.2085C66.3498 64.2048 67.158 66.2482 67.5403 67.342C67.9193 68.4358 68.1104 69.4592 68.1104 70.4087C68.1104 71.5965 67.6107 72.6803 66.6147 73.6533C65.6154 74.6263 64.4283 75.1162 63.05 75.1162C61.8125 75.1162 60.84 74.7941 60.1291 74.1532C59.4181 73.5124 58.7977 72.5494 58.2746 71.2643L54.6394 62.2084H33.9684L30.4774 71.4086C30.0012 72.6467 29.4076 73.5728 28.6967 74.1901C27.9824 74.8075 27.0099 75.1162 25.7758 75.1162C24.3036 75.1162 23.1131 74.6397 22.211 73.6902C21.3089 72.7407 20.8562 71.6703 20.8562 70.4825C20.8562 69.6739 20.9635 68.9257 21.1782 68.2379C21.3928 67.55 21.7583 66.5401 22.2815 65.208L37.3219 27.1994C37.939 25.8204 38.5694 24.8473 39.2099 24.277C39.8504 23.7066 40.6352 23.2435 41.5607 22.8879C42.4863 22.5322 43.3783 22.3544 44.2335 22.3544C47.6541 22.3544 50.0786 24.136 51.5039 27.7027L51.5005 27.6926ZM51.9298 54.2195L44.1597 33.2523L36.6043 54.2195H51.9298Z" fill="#FFC107"/>
<path d="M111.23 26.6223C112.702 27.8604 113.795 29.2964 114.509 30.9372C115.224 32.5779 115.579 34.279 115.579 36.0372C115.579 38.51 114.925 40.7212 113.621 42.6706C112.313 44.62 110.425 46.14 107.953 47.2338C114.607 49.1832 117.933 53.3438 117.933 59.7121C117.933 63.8491 116.364 67.389 113.228 70.3383C111.756 71.7173 109.781 72.7172 107.313 73.3345C104.841 73.9519 101.753 74.2606 98.0471 74.2606H82.2253C80.6559 74.2606 79.5391 74.1297 78.8752 73.868C78.2078 73.6063 77.6981 73.3211 77.3426 73.0124C76.9871 72.7037 76.7591 72.5024 76.6652 72.4051C76.189 72.026 75.8805 71.3717 75.7396 70.4456C75.5988 69.5196 75.525 68.154 75.525 66.3455V31.1184C75.525 29.075 75.6189 27.6725 75.8101 26.9108C75.9979 26.1525 76.4036 25.4379 77.0207 24.7702C77.6377 24.1528 78.352 23.7367 79.1602 23.522C79.9684 23.3073 81.4641 23.1999 83.6505 23.1999H98.9023C101.753 23.1999 104.164 23.4616 106.136 23.985C108.108 24.5084 109.808 25.3875 111.233 26.6223H111.23ZM105.458 37.3927C105.458 35.2521 104.65 33.6617 103.034 32.6148C102.179 32.0914 101.146 31.7223 99.9318 31.5109C98.7212 31.2962 97.0444 31.1888 94.9082 31.1888H85.7834V43.9523H96.2597C99.3952 43.9523 101.713 43.4289 103.208 42.382C104.704 41.3352 105.452 39.671 105.452 37.3894L105.458 37.3927ZM107.454 59.0008C107.454 56.6722 106.622 54.914 104.959 53.7229C103.295 52.5351 100.656 51.9412 97.0478 51.9412H85.7867V66.275H97.3328C100.8 66.275 103.356 65.6811 104.996 64.4934C106.635 63.3056 107.454 61.4736 107.454 59.0008Z" fill="#FFC107"/>
<path d="M67.8589 81.2832C56.8661 81.2832 47.6239 73.0158 46.3864 62.091L45.2496 52.0318C44.7667 47.7203 48.1235 43.949 52.4596 43.949H83.2749C87.611 43.949 90.9679 47.7203 90.485 52.0318L89.3481 62.091C88.1107 73.0191 78.8685 81.2832 67.8757 81.2832H67.8623H67.8589Z" fill="#8ED1FC"/>
<path d="M58.4456 65.1208C58.4255 65.1208 58.402 65.1208 58.3819 65.1141C58.1975 65.0805 58.0734 64.8994 58.1103 64.7148C58.1304 64.6108 58.6099 62.1245 60.565 59.0914C62.3625 56.2998 65.8032 52.5117 71.9837 50.3274C74.0931 49.5791 77.7819 48.9349 83.3789 50.126C86.7123 50.834 89.1872 51.8775 89.2107 51.8876C89.385 51.9614 89.4655 52.1627 89.3917 52.3338C89.318 52.5083 89.1168 52.5888 88.9457 52.515C88.8485 52.4747 79.2541 48.4719 72.2151 50.9716C66.2291 53.0888 62.8991 56.7427 61.1586 59.437C59.2672 62.3594 58.791 64.8188 58.7843 64.8423C58.7541 65.0067 58.6099 65.1208 58.449 65.1208H58.4456Z" fill="#3D9DD3"/>
<path d="M60.6656 57.9506L46.4602 60.0846L43.1469 38.0034C42.5634 34.0778 45.2664 30.4205 49.19 29.8233C53.1136 29.2395 56.7689 31.9438 57.3658 35.8695L60.6791 57.9506H60.6656Z" fill="#8ED1FC"/>
<path d="M74.2741 21.0425C77.9999 22.3947 79.9349 26.5217 78.5834 30.2494L70.9911 51.2367L57.4832 46.3413L65.0755 25.354C66.4269 21.6263 70.5518 19.6903 74.2775 21.0425H74.2741Z" fill="#8ED1FC"/>
<path d="M73.9757 43.3249C73.9354 43.3249 73.8985 43.3182 73.8583 43.3048C73.6806 43.241 73.59 43.0464 73.6537 42.8686L78.248 30.1621C79.5324 26.6156 77.6914 22.6799 74.1433 21.3948C70.5987 20.1064 66.665 21.9518 65.3806 25.5017L63.107 31.7895C63.0433 31.9673 62.8487 32.0579 62.671 31.9941C62.4933 31.9304 62.4027 31.7358 62.4664 31.5579L64.7401 25.2701C66.1553 21.3646 70.478 19.3414 74.3781 20.7539C78.2816 22.1699 80.3037 26.4948 78.8919 30.397L74.2976 43.1035C74.2473 43.241 74.1165 43.3283 73.9757 43.3283V43.3249Z" fill="#3D9DD3"/>
<path d="M84.5795 35.6849H84.5761C81.235 35.6849 78.5264 38.3949 78.5264 41.7379V51.5017C78.5264 54.8447 81.235 57.5547 84.5761 57.5547H84.5795C87.9206 57.5547 90.6292 54.8447 90.6292 51.5017V41.7379C90.6292 38.3949 87.9206 35.6849 84.5795 35.6849Z" fill="#8ED1FC"/>
<path d="M72.4901 33.9335H72.4867C69.1456 33.9335 66.437 36.6435 66.437 39.9864V49.7503C66.437 53.0932 69.1456 55.8032 72.4867 55.8032H72.4901C75.8313 55.8032 78.5398 53.0932 78.5398 49.7503V39.9864C78.5398 36.6435 75.8313 33.9335 72.4901 33.9335Z" fill="#8ED1FC"/>
<path d="M84.499 57.766C81.0013 57.766 78.1575 54.9207 78.1575 51.4211C78.1575 51.2634 78.2849 51.1359 78.4426 51.1359C78.6002 51.1359 78.7276 51.2634 78.7276 51.4211C78.7276 54.6053 81.3165 57.1989 84.5023 57.1989C87.6882 57.1989 90.2771 54.6086 90.2771 51.4211C90.2771 51.2634 90.4045 51.1359 90.5621 51.1359C90.7197 51.1359 90.8472 51.2634 90.8472 51.4211C90.8472 54.9207 88.0034 57.766 84.5057 57.766H84.499Z" fill="#3D9DD3"/>
<path d="M72.5672 56.2293C69.0695 56.2293 66.2258 53.384 66.2258 49.8845V44.8482C66.2258 44.6905 66.3532 44.563 66.5108 44.563C66.6684 44.563 66.7959 44.6905 66.7959 44.8482V49.8845C66.7959 53.0686 69.3848 55.6623 72.5706 55.6623C75.7564 55.6623 78.3453 53.072 78.3453 49.8845V44.8482C78.3453 44.6905 78.4728 44.563 78.6304 44.563C78.788 44.563 78.9154 44.6905 78.9154 44.8482V49.8845C78.9154 53.384 76.0716 56.2293 72.5739 56.2293H72.5672Z" fill="#3D9DD3"/>
<path d="M66.494 45.4589C66.3364 45.4589 66.209 45.3314 66.209 45.1737V40.1374C66.209 36.6378 69.0528 33.7925 72.5505 33.7925C76.0482 33.7925 78.8919 36.6378 78.8919 40.1374C78.8919 40.2951 78.7645 40.4226 78.6069 40.4226C78.4493 40.4226 78.3218 40.2951 78.3218 40.1374C78.3218 36.9532 75.7329 34.3596 72.5471 34.3596C69.3613 34.3596 66.7724 36.9499 66.7724 40.1374V45.1737C66.7724 45.3314 66.6449 45.4589 66.4873 45.4589H66.494Z" fill="#3D9DD3"/>
<path d="M73.419 33.7926C68.3988 32.6585 63.2277 30.3165 61.8695 28.5617C60.5114 26.8069 63.4792 26.3069 68.4994 27.4444C73.5196 28.5818 78.6941 30.9238 80.0522 32.6752C81.4104 34.4267 78.4425 34.9266 73.4224 33.7926H73.419Z" fill="#40A5DD"/>
<path d="M61.568 27.6154L65.9242 13.9829C66.226 13.0367 68.9055 12.9193 72.8525 13.8118C77.8727 14.9492 83.0472 17.2912 84.4054 19.0427C84.6938 19.4151 84.7877 19.7339 84.7072 19.9889L80.351 33.6214C80.4314 33.3664 80.3409 33.0476 80.0492 32.6752C78.691 30.9237 73.5165 28.5817 68.4963 27.4443C64.5493 26.5518 61.8698 26.6692 61.568 27.6154Z" fill="#40A5DD"/>
<mask id="mask0_368_153" style="mask-type:luminance" maskUnits="userSpaceOnUse" x="61" y="13" width="24" height="21">
<path d="M61.568 27.6154L65.9242 13.9829C66.226 13.0367 68.9055 12.9193 72.8525 13.8118C77.8727 14.9492 83.0472 17.2912 84.4054 19.0427C84.6938 19.4151 84.7877 19.7339 84.7072 19.9889L80.351 33.6214C80.4314 33.3664 80.3409 33.0476 80.0492 32.6752C78.691 30.9237 73.5165 28.5817 68.4963 27.4443C64.5493 26.5518 61.8698 26.6692 61.568 27.6154Z" fill="white"/>
</mask>
<g mask="url(#mask0_368_153)">
<path d="M61.5677 27.6155L65.9239 13.983C65.9239 13.983 65.9306 13.9595 65.9373 13.946L61.5811 27.5786C61.5811 27.5786 61.5711 27.602 61.5677 27.6155Z" fill="#40A5DD"/>
<path d="M61.5811 27.582L65.9373 13.9495C65.9575 13.8991 65.9809 13.8555 66.0145 13.8085L61.6583 27.441C61.6247 27.4847 61.6013 27.5316 61.5811 27.582Z" fill="#40A5DD"/>
<path d="M61.6583 27.441L66.0145 13.8085C66.0446 13.7682 66.0815 13.7279 66.1218 13.6877L61.7656 27.3202C61.722 27.3571 61.6884 27.3974 61.6583 27.441Z" fill="#40A5DD"/>
<path d="M61.7656 27.3236L66.1218 13.6911C66.162 13.6542 66.209 13.6207 66.2593 13.5905L61.9031 27.223C61.8528 27.2565 61.8058 27.2901 61.7656 27.3236Z" fill="#40A5DD"/>
<path d="M61.9031 27.2196L66.2593 13.5871C66.3096 13.5569 66.3632 13.5267 66.4236 13.4965L62.0674 27.129C62.007 27.1558 61.9534 27.186 61.9031 27.2196Z" fill="#40A5DD"/>
<path d="M62.064 27.129L66.4202 13.4965C66.4806 13.4696 66.5443 13.4428 66.6114 13.4193L62.2552 27.0518C62.1881 27.0753 62.1244 27.1022 62.064 27.129Z" fill="#40A5DD"/>
<path d="M62.2552 27.0551L66.6114 13.4226C66.6785 13.3991 66.7522 13.3757 66.8294 13.3555L62.4732 26.988C62.396 27.0082 62.3223 27.0283 62.2552 27.0551Z" fill="#40A5DD"/>
<path d="M62.4732 26.988L66.8294 13.3555C66.9099 13.3354 66.9903 13.3152 67.0809 13.3018L62.7247 26.9343C62.6375 26.9511 62.5536 26.9679 62.4732 26.988Z" fill="#40A5DD"/>
<path d="M62.7247 26.9343L67.0809 13.3018C67.1714 13.285 67.2687 13.2716 67.3693 13.2582L63.0131 26.8907C62.9125 26.9041 62.8152 26.9175 62.7247 26.9343Z" fill="#40A5DD"/>
<path d="M63.0131 26.8907L67.3693 13.2582C67.4732 13.2448 67.5839 13.2347 67.7013 13.228L63.3451 26.8605C63.2311 26.8673 63.1204 26.8807 63.0131 26.8907Z" fill="#40A5DD"/>
<path d="M63.3451 26.8572L67.7013 13.2247C67.8254 13.2146 67.9528 13.2112 68.0869 13.2079L63.7307 26.8404C63.5966 26.8404 63.4692 26.8505 63.3451 26.8572Z" fill="#40A5DD"/>
<path d="M63.7274 26.8404L68.0836 13.2079C68.2311 13.2045 68.3854 13.2045 68.543 13.2079L64.1868 26.8404C64.0258 26.8371 63.8749 26.8404 63.7274 26.8404Z" fill="#40A5DD"/>
<path d="M64.1902 26.8404L68.5464 13.2079C68.7308 13.2112 68.922 13.2213 69.1198 13.2314L64.7636 26.8639C64.5658 26.8505 64.3746 26.8438 64.1902 26.8404Z" fill="#40A5DD"/>
<path d="M64.7636 26.8639L69.1198 13.2314C69.3613 13.2482 69.6128 13.2683 69.8743 13.2985L65.5181 26.931C65.2566 26.9008 65.0051 26.8807 64.7636 26.8639Z" fill="#40A5DD"/>
<path d="M65.5182 26.931L69.8744 13.2985C70.203 13.3354 70.5484 13.379 70.9106 13.4361L66.5544 27.0686C66.1922 27.0116 65.8468 26.9646 65.5182 26.931Z" fill="#40A5DD"/>
<path d="M66.5544 27.0686L70.9106 13.436C71.5176 13.53 72.1648 13.6575 72.8556 13.8118C73.2714 13.9058 73.6873 14.0064 74.1031 14.1172L69.7469 27.7497C69.3311 27.6389 68.9152 27.5383 68.4994 27.4443C67.8119 27.29 67.1614 27.1625 66.5544 27.0686Z" fill="#40A5DD"/>
<path d="M69.7436 27.7497L74.0998 14.1172C74.3311 14.1776 74.5625 14.2413 74.7906 14.3051L70.4344 27.9376C70.203 27.8738 69.975 27.8101 69.7436 27.7497Z" fill="#40A5DD"/>
<path d="M70.4344 27.941L74.7906 14.3085C74.9784 14.3622 75.1628 14.4158 75.3506 14.4729L70.9944 28.1054C70.81 28.0484 70.6222 27.9947 70.4344 27.941Z" fill="#40A5DD"/>
<path d="M70.9944 28.1053L75.3506 14.4728C75.5217 14.5232 75.6893 14.5769 75.857 14.6272L71.5008 28.2597C71.3331 28.206 71.1621 28.1557 70.9944 28.1053Z" fill="#40A5DD"/>
<path d="M71.5008 28.2597L75.857 14.6272C76.018 14.6775 76.1823 14.7312 76.3433 14.7815L71.987 28.4141C71.8261 28.3604 71.6651 28.31 71.5008 28.2597Z" fill="#40A5DD"/>
<path d="M71.987 28.4141L76.3433 14.7816C76.5076 14.8352 76.6685 14.8889 76.8295 14.946L72.4733 28.5785C72.3123 28.5248 72.1514 28.4677 71.987 28.4141Z" fill="#40A5DD"/>
<path d="M72.4733 28.5784L76.8295 14.9459C76.9938 15.003 77.1548 15.06 77.3158 15.117L72.9596 28.7496C72.7986 28.6925 72.6376 28.6355 72.4733 28.5784Z" fill="#40A5DD"/>
<path d="M72.9596 28.7496L77.3158 15.1171C77.4835 15.1775 77.6478 15.2379 77.8087 15.2982L73.4525 28.9308C73.2882 28.8704 73.1239 28.81 72.9596 28.7496Z" fill="#40A5DD"/>
<path d="M73.4525 28.9307L77.8087 15.2982C77.973 15.3586 78.1374 15.4224 78.3017 15.4861L73.9455 29.1186C73.7812 29.0549 73.6169 28.9911 73.4525 28.9307Z" fill="#40A5DD"/>
<path d="M73.9455 29.1153L78.3017 15.4828C78.466 15.5465 78.6303 15.6103 78.7913 15.6774L74.4351 29.3099C74.2741 29.2428 74.1098 29.1791 73.9455 29.1153Z" fill="#40A5DD"/>
<path d="M74.4351 29.3099L78.7913 15.6774C78.9556 15.7445 79.1166 15.8116 79.2776 15.8787L74.9214 29.5112C74.7604 29.4441 74.5994 29.377 74.4351 29.3099Z" fill="#40A5DD"/>
<path d="M74.9214 29.5112L79.2776 15.8787C79.4419 15.9492 79.6029 16.0163 79.7605 16.0868L75.4043 29.7193C75.2467 29.6488 75.0823 29.5783 74.9214 29.5112Z" fill="#40A5DD"/>
<path d="M75.4043 29.7226L79.7605 16.0901C79.9248 16.1639 80.0858 16.2344 80.2434 16.3082L75.8872 29.9407C75.7296 29.8669 75.5686 29.7931 75.4043 29.7226Z" fill="#40A5DD"/>
<path d="M75.8872 29.9407L80.2434 16.3082C80.4077 16.3853 80.5687 16.4592 80.7263 16.5363L76.3701 30.1688C76.2125 30.0917 76.0515 30.0145 75.8872 29.9407Z" fill="#40A5DD"/>
<path d="M76.3701 30.1688L80.7263 16.5363C80.894 16.6168 81.0549 16.6974 81.2159 16.7813L76.8597 30.4138C76.7021 30.3332 76.5378 30.2494 76.3701 30.1688Z" fill="#40A5DD"/>
<path d="M76.8597 30.4138L81.2159 16.7812C81.3903 16.8718 81.558 16.9591 81.7223 17.0497L77.3661 30.6822C77.2017 30.5916 77.0307 30.501 76.8597 30.4138Z" fill="#40A5DD"/>
<path d="M77.3661 30.6823L81.7223 17.0497C81.9101 17.1504 82.0878 17.2544 82.2622 17.3551L77.906 30.9876C77.7349 30.8869 77.5539 30.7829 77.3661 30.6823Z" fill="#40A5DD"/>
<path d="M77.906 30.9909L82.2622 17.3584C82.4835 17.4893 82.6948 17.6201 82.8893 17.751L78.5331 31.3835C78.3352 31.2526 78.1273 31.1218 77.906 30.9909Z" fill="#40A5DD"/>
<path d="M78.5331 31.3801L82.8893 17.7476C83.5667 18.1972 84.0899 18.6367 84.4051 19.0427C84.6935 19.4151 84.7874 19.7339 84.7069 19.9889L80.3507 33.6214C80.4312 33.3664 80.3406 33.0476 80.0489 32.6752C79.7336 32.2692 79.2105 31.8297 78.5331 31.3801Z" fill="#40A5DD"/>
</g>
<path d="M72.2352 26.3539L57.6039 12.7549C57.0036 12.1979 57.3088 11.1947 58.1136 11.0639L77.2722 7.94009C77.5706 7.88976 77.8758 7.98371 78.1005 8.19174L92.7318 21.7907C93.3321 22.3477 93.0269 23.3509 92.2221 23.4818L73.0635 26.6055C72.7651 26.6559 72.4599 26.5619 72.2352 26.3539Z" fill="#8ED1FC"/>
<path d="M57.5192 10.4972L60.2102 15.1997C60.3529 15.4477 60.5975 15.6244 60.8796 15.6787L66.2004 16.698C67.0974 16.8713 67.2979 18.0673 66.5028 18.5192L61.8003 21.2102C61.5523 21.3529 61.3756 21.5976 61.3213 21.8796L60.302 27.2004C60.1287 28.0974 58.9327 28.2979 58.4808 27.5028L55.7898 22.8003C55.6471 22.5523 55.4024 22.3756 55.1204 22.3213L49.7996 21.302C48.9026 21.1287 48.7021 19.9327 49.4972 19.4808L54.1996 16.7898C54.4477 16.6471 54.6244 16.4024 54.6787 16.1204L55.698 10.7996C55.8713 9.90261 57.0673 9.70215 57.5192 10.4972Z" fill="#FD7E14"/>
</svg>
