<svg width="140" height="92" viewBox="0 0 140 92" fill="none" xmlns="http://www.w3.org/2000/svg">
<path d="M128.269 0H11.7309C5.25213 0 0 5.22072 0 11.6608V80.3392C0 86.7793 5.25213 92 11.7309 92H128.269C134.748 92 140 86.7793 140 80.3392V11.6608C140 5.22072 134.748 0 128.269 0Z" fill="#E4F1F9"/>
<path d="M58.4 52.2939C57.2856 52.2939 56.2318 52.2282 55.2353 52.0967C54.2387 51.9652 53.3465 51.6661 52.5587 51.1994C51.7709 50.7326 51.1481 50.0588 50.6902 49.178C50.2289 48.2971 50 47.0908 50 45.5559C50 43.9092 50.2289 42.6174 50.6902 41.6807C51.1514 40.7439 51.7642 40.0504 52.5318 39.6034C53.2994 39.1531 54.1815 38.8737 55.178 38.762C56.1746 38.6502 57.2115 38.5944 58.2855 38.5944H63.9248V33.0889C63.9248 32.1522 63.982 31.199 64.0965 30.2228C64.211 29.2499 64.5005 28.3789 64.9584 27.6097C65.4196 26.8439 66.1267 26.2161 67.0862 25.7297C68.0457 25.2432 69.3688 25 71.0555 25C72.5908 25 73.8163 25.2432 74.7388 25.7297C75.6579 26.2161 76.3581 26.8439 76.8396 27.6097C77.3177 28.3789 77.624 29.2499 77.7587 30.2228C77.8934 31.1957 77.9607 32.1522 77.9607 33.0889V38.5944H83.7145C84.674 38.5944 85.6503 38.6502 86.6503 38.762C87.6468 38.8737 88.539 39.1564 89.3268 39.6034C90.1113 40.0537 90.7543 40.7472 91.2526 41.6807C91.7509 42.6174 92 43.9092 92 45.5559C92 47.0908 91.7509 48.3004 91.2526 49.178C90.7543 50.0588 90.1113 50.7326 89.3268 51.1994C88.539 51.6694 87.6468 51.9685 86.6503 52.0967C85.6537 52.2282 84.674 52.2939 83.7145 52.2939H77.9607V57.9111C77.9607 58.9596 77.8934 59.9719 77.7587 60.9448C77.624 61.9177 77.3177 62.7789 76.8396 63.5283C76.3581 64.2777 75.6612 64.8759 74.7388 65.3262C73.8196 65.7765 72.5908 66 71.0555 66C69.3688 66 68.0423 65.7765 67.0862 65.3262C66.1267 64.8759 65.4163 64.2777 64.9584 63.5283C64.4972 62.7789 64.211 61.9177 64.0965 60.9448C63.982 59.9719 63.9248 58.9596 63.9248 57.9111V52.2939H58.4Z" fill="#8ED1FC"/>
<path d="M46 32C52.6274 32 58 26.6274 58 20C58 13.3726 52.6274 8 46 8C39.3726 8 34 13.3726 34 20C34 26.6274 39.3726 32 46 32Z" fill="#FFC107"/>
<path d="M46 82C52.6274 82 58 76.6274 58 70C58 63.3726 52.6274 58 46 58C39.3726 58 34 63.3726 34 70C34 76.6274 39.3726 82 46 82Z" fill="#FD7E14"/>
<path d="M96 32C102.627 32 108 26.6274 108 20C108 13.3726 102.627 8 96 8C89.3726 8 84 13.3726 84 20C84 26.6274 89.3726 32 96 32Z" fill="#FD7E14"/>
<path d="M96 82C102.627 82 108 76.6274 108 70C108 63.3726 102.627 58 96 58C89.3726 58 84 63.3726 84 70C84 76.6274 89.3726 82 96 82Z" fill="#FFC107"/>
<path d="M47.1314 14.2169L50.3028 21.8388C50.5905 22.52 50.78 22.9862 50.868 23.2342C50.956 23.4822 51 23.7137 51 23.9319C51 24.2031 50.8849 24.4478 50.6514 24.6693C50.4178 24.8909 50.1437 25 49.8221 25C49.5344 25 49.3077 24.9273 49.1418 24.7818C48.976 24.6363 48.8305 24.418 48.712 24.1237L47.8658 22.0637H43.0529L42.2406 24.1568C42.1289 24.4379 41.9901 24.6495 41.8243 24.7884C41.6584 24.9273 41.4317 25 41.144 25C40.8021 25 40.5246 24.8909 40.3148 24.6759C40.1049 24.461 40 24.2163 40 23.9452C40 23.76 40.0237 23.5913 40.0745 23.4359C40.1252 23.2805 40.2098 23.0491 40.3317 22.7481L43.8348 14.1044C43.9769 13.7903 44.1258 13.5688 44.2748 13.4398C44.4237 13.3108 44.6065 13.205 44.8231 13.1223C45.0397 13.0397 45.2461 13 45.4458 13C46.2412 13 46.8065 13.4067 47.1381 14.2169H47.1314ZM47.2329 20.2483L45.4255 15.48L43.6655 20.2483H47.2329Z" fill="white"/>
<path d="M99.5781 14.7331C99.8897 14.9994 100.124 15.3096 100.275 15.6636C100.426 16.0177 100.503 16.3842 100.503 16.7633C100.503 17.2959 100.365 17.7721 100.087 18.192C99.8095 18.6118 99.4085 18.9408 98.8842 19.1757C100.297 19.5956 101 20.4916 101 21.8639C101 22.7536 100.667 23.5181 100.001 24.1541C99.6892 24.4517 99.2697 24.6648 98.7454 24.7995C98.221 24.9342 97.5672 25 96.7807 25H93.4219C93.0888 25 92.8513 24.9718 92.7125 24.9154C92.5706 24.859 92.4626 24.7964 92.3886 24.7306C92.3115 24.6648 92.2653 24.6209 92.2437 24.599C92.1419 24.5175 92.0771 24.3765 92.0463 24.176C92.0154 23.9755 92 23.681 92 23.2925V15.7044C92 15.2626 92.0216 14.9618 92.0617 14.7989C92.1018 14.636 92.1882 14.4825 92.3177 14.3384C92.4472 14.2068 92.5984 14.1159 92.7711 14.0689C92.9438 14.0219 93.2615 14 93.7241 14H96.9596C97.5641 14 98.0761 14.0564 98.4955 14.1692C98.915 14.282 99.2759 14.47 99.5781 14.7363V14.7331ZM98.3537 17.0547C98.3537 16.5941 98.1809 16.2495 97.8386 16.0239C97.6566 15.9111 97.4376 15.8328 97.1816 15.7858C96.9256 15.7388 96.5679 15.7169 96.1145 15.7169H94.1775V18.4677H96.4013C97.0675 18.4677 97.5579 18.3549 97.8756 18.1293C98.1933 17.9037 98.3506 17.5466 98.3506 17.0547H98.3537ZM98.7762 21.7072C98.7762 21.2059 98.6004 20.8268 98.2457 20.5699C97.8941 20.313 97.3328 20.1846 96.5679 20.1846H94.1775V23.2737H96.6265C97.3636 23.2737 97.9034 23.1453 98.2519 22.8883C98.6004 22.6314 98.7731 22.2367 98.7731 21.7041L98.7762 21.7072Z" fill="white"/>
<path d="M50.9521 67.5292C50.9521 67.8004 50.8596 68.0353 50.6713 68.2337C50.4831 68.4355 50.2438 68.5347 49.9502 68.5347C49.7013 68.5347 49.5003 68.4653 49.3472 68.323C49.1972 68.1841 49.0121 67.8798 48.792 67.4135C48.5622 66.9372 48.2304 66.5601 47.7996 66.2789C47.3657 65.9978 46.8902 65.8589 46.3669 65.8589C45.4193 65.8589 44.6694 66.226 44.1206 66.9603C43.5718 67.6946 43.3006 68.7431 43.3006 70.1058C43.3006 71.4686 43.5814 72.5105 44.1462 73.172C44.4174 73.4862 44.7269 73.7244 45.0779 73.8864C45.4289 74.0485 45.8373 74.1312 46.3063 74.1312C46.9732 74.1312 47.5348 73.946 47.9879 73.5788C48.441 73.2117 48.7728 72.7023 48.9802 72.054C49.178 71.4256 49.5163 71.1147 49.9981 71.1147C50.2597 71.1147 50.4927 71.2073 50.6937 71.3892C50.8979 71.5744 51 71.8225 51 72.1367C51 72.6229 50.8468 73.1422 50.5373 73.6946C50.231 74.247 49.8194 74.7233 49.3089 75.1235C48.5463 75.7089 47.5731 76 46.3829 76C44.8386 76 43.6356 75.5799 42.7677 74.7365C42.1838 74.1643 41.7435 73.4763 41.4467 72.6758C41.15 71.8754 41 70.989 41 70.0165C41 68.8159 41.2265 67.7608 41.6796 66.8545C42.1327 65.9482 42.7709 65.2437 43.5878 64.7475C44.4078 64.2514 45.3363 64 46.3797 64C47.2987 64 48.1027 64.1885 48.7983 64.5689C49.4907 64.946 50.0236 65.4157 50.3937 65.9713C50.7639 66.527 50.949 67.0496 50.949 67.5358L50.9521 67.5292Z" fill="white"/>
<path d="M99.3972 65.2858C100.464 66.3152 101 67.902 101 70.0496C101 71.055 100.88 71.9168 100.64 72.6315C100.4 73.3463 100.037 73.9789 99.5438 74.5261C99.0873 75.0288 98.5542 75.4015 97.941 75.6409C97.3312 75.8803 96.5448 76 95.5885 76H92.6794C92.2096 76 91.8897 75.9624 91.7164 75.8906C91.5432 75.8187 91.3799 75.6922 91.2266 75.5144C91.13 75.4015 91.0666 75.2579 91.04 75.0801C91.0133 74.9023 91 74.5945 91 74.1567V65.6894C91 65.3303 91.02 65.0704 91.0566 64.9028C91.0933 64.7353 91.1633 64.5916 91.2599 64.4685C91.4132 64.2907 91.5731 64.1676 91.7431 64.0992C91.913 64.0308 92.2096 64 92.6328 64H95.6384C96.5415 64 97.2779 64.1026 97.8444 64.3112C98.4109 64.5198 98.9274 64.8447 99.3972 65.2927V65.2858ZM97.6011 73.3702C98.2642 72.7204 98.5975 71.5987 98.5975 69.9983C98.5975 68.9587 98.4575 68.1516 98.1809 67.5737C97.9044 66.9991 97.5312 66.5546 97.0613 66.24C96.7014 65.9937 96.025 65.8706 95.0353 65.8706H93.3525V74.1225H95.2652C95.8417 74.1225 96.3082 74.0644 96.6614 73.9447C97.0147 73.8284 97.3279 73.6335 97.6011 73.3668V73.3702Z" fill="white"/>
<path d="M71.0033 81C67.6881 81 64.3996 80.5489 61.2313 79.6566C60.6699 79.4995 60.3424 78.918 60.5028 78.3566C60.6599 77.7952 61.2414 77.471 61.8028 77.6281C64.7872 78.4669 67.8819 78.8913 71.0067 78.8913C74.1315 78.8913 77.5069 78.4268 80.6116 77.5111C81.1697 77.3474 81.7579 77.6648 81.9217 78.2229C82.0854 78.781 81.7679 79.3692 81.2098 79.5329C77.9113 80.5054 74.479 81 71.0067 81H71.0033ZM37.4664 55.9161C37.0119 55.9161 36.5908 55.6187 36.4538 55.1575C35.4879 51.8725 35 48.4538 35 44.9983C35 41.5429 35.4846 38.1709 36.4371 34.906C36.6008 34.3479 37.1857 34.0237 37.7438 34.1875C38.3019 34.3512 38.6227 34.936 38.4623 35.4941C37.5666 38.5686 37.1121 41.7668 37.1121 44.995C37.1121 48.2232 37.5733 51.4681 38.4824 54.5593C38.6461 55.1174 38.3253 55.7056 37.7672 55.8693C37.6669 55.8994 37.5667 55.9128 37.4697 55.9128L37.4664 55.9161ZM104.607 55.6722C104.51 55.6722 104.413 55.6588 104.316 55.6321C103.755 55.4717 103.431 54.8868 103.591 54.3287C104.453 51.3111 104.891 48.1731 104.891 44.9983C104.891 41.8236 104.46 38.729 103.608 35.7314C103.447 35.17 103.775 34.5885 104.333 34.4281C104.895 34.2677 105.476 34.5952 105.636 35.1533C106.542 38.3414 107 41.6498 107 44.995C107 48.3402 106.535 51.6987 105.62 54.9035C105.486 55.3681 105.065 55.6688 104.607 55.6688V55.6722ZM80.9458 12.5424C80.8455 12.5424 80.7453 12.529 80.645 12.4989C77.5269 11.5766 74.2818 11.1087 71.0033 11.1087C67.7248 11.1087 64.7572 11.5365 61.7661 12.3819C61.2046 12.539 60.6231 12.2149 60.466 11.6534C60.309 11.092 60.6331 10.5105 61.1946 10.3534C64.3728 9.45449 67.6747 9 71.0067 9C74.3387 9 77.9346 9.49793 81.2466 10.4771C81.8047 10.6408 82.1222 11.229 81.9584 11.7871C81.8214 12.2449 81.4036 12.5424 80.9491 12.5424H80.9458Z" fill="#F4B300"/>
</svg>
