<svg width="140" height="92" viewBox="0 0 140 92" fill="none" xmlns="http://www.w3.org/2000/svg">
<path d="M128.269 0H11.7309C5.25211 0 0 5.22071 0 11.6608V80.3392C0 86.7793 5.25211 92 11.7309 92H128.269C134.748 92 140 86.7793 140 80.3392V11.6608C140 5.22071 134.748 0 128.269 0Z" fill="#E4F1F9"/>
<g clip-path="url(#clip0_368_160)">
<path d="M94.4542 24.6339C95.1019 25.8042 95.4183 27.182 95.2601 28.6381L94.5019 35.9304L94.2094 41.8779C93.9408 47.3592 94.7975 52.5305 89.6395 56.4113L79.1414 65.0815L80.1921 49.5763L78.7265 45.8309C76.3445 44.5884 80.4727 40.9303 80.7682 38.0844L81.8935 27.2332C82.2846 23.5148 85.5829 20.8163 89.2753 21.2104C91.5349 21.4451 93.4184 22.7868 94.4452 24.646L94.4572 24.6339H94.4542Z" fill="#8ED1FC"/>
<path d="M85.7412 46.5439L83.3472 57.013C82.6637 59.9943 81.2817 62.6778 79.3892 64.8709L76.5774 67.1993C73.6432 69.6271 70.0016 71.1042 66.2137 71.2276H65.6137C57.1335 71.2276 49.7756 65.3281 47.8712 57.004L45.4773 46.5348C44.6714 43.012 47.322 39.6487 50.9158 39.6487H80.3295C83.9114 39.6487 86.574 43.012 85.768 46.5348L85.7442 46.5469L85.7412 46.5439Z" fill="#8ED1FC"/>
<path d="M57.5633 57.2326C57.5454 57.2326 57.5275 57.2326 57.5096 57.2266C57.3513 57.1965 57.2469 57.0431 57.2737 56.8807C57.2887 56.7934 59.0229 48.0511 69.1956 44.426C72.479 43.2527 76.3326 43.6829 78.9862 44.2515C81.8488 44.8652 83.977 45.7677 83.9979 45.7768C84.1472 45.8399 84.2158 46.0144 84.1531 46.1649C84.0905 46.3153 83.9203 46.3875 83.7681 46.3213C83.6845 46.2852 75.4401 42.8226 69.3896 44.9856C59.5333 48.4963 57.8648 56.9077 57.8468 56.992C57.82 57.1334 57.6976 57.2326 57.5603 57.2326H57.5633Z" fill="#3D9DD3"/>
<path d="M87.0008 45.151C86.962 45.151 86.9232 45.145 86.8874 45.127C86.8605 45.1149 84.0517 43.9266 80.5533 43.3731C80.3921 43.349 80.2847 43.1956 80.3086 43.0362C80.3324 42.8767 80.4847 42.7654 80.6429 42.7895C84.2188 43.355 87.0874 44.5704 87.1142 44.5825C87.2635 44.6456 87.3321 44.8201 87.2694 44.9705C87.2217 45.0818 87.1142 45.151 86.9978 45.151H87.0008Z" fill="#3D9DD3"/>
<path d="M51.6024 27.886H51.5994C48.1919 27.886 45.4295 30.67 45.4295 34.1043V44.1312C45.4295 47.5655 48.1919 50.3495 51.5994 50.3495H51.6024C55.0099 50.3495 57.7722 47.5655 57.7722 44.1312V34.1043C57.7722 30.67 55.0099 27.886 51.6024 27.886Z" fill="#8ED1FC"/>
<path d="M64.4436 25.2236C67.8494 25.2236 70.6135 28.0093 70.6135 31.4419V47.6871H58.2708V31.4419C58.2708 28.0093 61.0348 25.2236 64.4406 25.2236H64.4436Z" fill="#8ED1FC"/>
<path d="M77.4967 22.9583H77.4937C74.0862 22.9583 71.3239 25.7423 71.3239 29.1766V39.2035C71.3239 42.6377 74.0862 45.4218 77.4937 45.4218H77.4967C80.9042 45.4218 83.6666 42.6377 83.6666 39.2035V29.1766C83.6666 25.7423 80.9042 22.9583 77.4967 22.9583Z" fill="#8ED1FC"/>
<path d="M51.6113 50.6082C48.0473 50.6082 45.1459 47.6871 45.1459 44.0921V38.9207C45.1459 38.7582 45.2773 38.6259 45.4385 38.6259C45.5996 38.6259 45.731 38.7582 45.731 38.9207V44.0921C45.731 47.3592 48.3667 50.0155 51.6083 50.0155C54.85 50.0155 57.4857 47.3592 57.4857 44.0921V38.9207C57.4857 38.7582 57.617 38.6259 57.7782 38.6259C57.9394 38.6259 58.0707 38.7582 58.0707 38.9207V44.0921C58.0707 47.6841 55.1724 50.6082 51.6053 50.6082H51.6113Z" fill="#3D9DD3"/>
<path d="M64.5272 47.9097C60.9631 47.9097 58.0618 44.9886 58.0618 41.3936V36.2222C58.0618 36.0597 58.1931 35.9274 58.3543 35.9274C58.5155 35.9274 58.6468 36.0597 58.6468 36.2222V41.3936C58.6468 44.6607 61.2825 47.3171 64.5242 47.3171C67.7658 47.3171 70.4015 44.6607 70.4015 41.3936V36.2222C70.4015 36.0597 70.5329 35.9274 70.694 35.9274C70.8552 35.9274 70.9866 36.0597 70.9866 36.2222V41.3936C70.9866 44.9856 68.0882 47.9097 64.5212 47.9097H64.5272Z" fill="#3D9DD3"/>
<path d="M77.4191 45.879C73.8551 45.879 70.9537 42.9579 70.9537 39.3629V34.1915C70.9537 34.029 71.0851 33.8967 71.2463 33.8967C71.4074 33.8967 71.5388 34.029 71.5388 34.1915V39.3629C71.5388 42.63 74.1745 45.2864 77.4161 45.2864C80.6578 45.2864 83.2935 42.63 83.2935 39.3629V34.1915C83.2935 34.029 83.4248 33.8967 83.586 33.8967C83.7472 33.8967 83.8785 34.029 83.8785 34.1915V39.3629C83.8785 42.9549 80.9802 45.879 77.4131 45.879H77.4191Z" fill="#3D9DD3"/>
<path d="M39.976 33.0935C38.3343 33.0935 37 31.7487 37 30.0941V23.1388C37 16.4331 42.3908 11 49.0442 11H55.2081C56.8499 11 58.1841 12.3447 58.1841 13.9993C58.1841 15.654 56.8499 16.9987 55.2081 16.9987H49.0442C45.6772 16.9987 42.952 19.7453 42.952 23.1388V30.0941C42.952 31.7487 41.6177 33.0935 39.976 33.0935Z" fill="#FFC107"/>
<path d="M101.024 33.0935C99.3823 33.0935 98.048 31.7487 98.048 30.0941V23.1388C98.048 19.7453 95.3228 16.9987 91.9557 16.9987H85.7918C84.1501 16.9987 82.8159 15.654 82.8159 13.9993C82.8159 12.3447 84.1501 11 85.7918 11H91.9557C98.6092 11 104 16.4331 104 23.1388V30.0941C104 31.7487 102.666 33.0935 101.024 33.0935Z" fill="#FFC107"/>
<path d="M91.9438 80H85.7799C84.1382 80 82.804 78.6552 82.804 77.0006C82.804 75.346 84.1382 74.0013 85.7799 74.0013H91.9438C95.3109 74.0013 98.0361 71.2546 98.0361 67.8612V60.9058C98.0361 59.2512 99.3704 57.9065 101.012 57.9065C102.654 57.9065 103.988 59.2512 103.988 60.9058V67.8612C103.988 74.5669 98.5973 80 91.9438 80Z" fill="#FFC107"/>
<path d="M55.2081 80H49.0442C42.3908 80 37 74.5669 37 67.8612V60.9058C37 59.2512 38.3343 57.9065 39.976 57.9065C41.6177 57.9065 42.952 59.2512 42.952 60.9058V67.8612C42.952 71.2546 45.6772 74.0013 49.0442 74.0013H55.2081C56.8499 74.0013 58.1841 75.346 58.1841 77.0006C58.1841 78.6552 56.8499 80 55.2081 80Z" fill="#FFC107"/>
</g>
<defs>
<clipPath id="clip0_368_160">
<rect width="67" height="69" fill="white" transform="translate(37 11)"/>
</clipPath>
</defs>
</svg>
