<svg width="140" height="92" viewBox="0 0 140 92" fill="none" xmlns="http://www.w3.org/2000/svg">
<path d="M128.269 0H11.7309C5.25213 0 0 5.22072 0 11.6608V80.3392C0 86.7793 5.25213 92 11.7309 92H128.269C134.748 92 140 86.7793 140 80.3392V11.6608C140 5.22072 134.748 0 128.269 0Z" fill="#E4F1F9"/>
<path d="M44.7673 80.6027C40.3004 78.8815 37.0844 74.637 36.8665 69.6142C37.1213 74.6135 40.3239 78.8479 44.7673 80.6027Z" fill="#FF405B"/>
<path d="M100.238 22.6637V56.4682H100.231V59.7396H93.3497V56.4682H49.3484C42.5307 56.4682 36.9706 61.9608 36.8566 68.7552V22.6637C36.8566 15.8357 42.3898 10.2961 49.2176 10.2961H87.8801C94.7045 10.2961 100.241 15.8324 100.241 22.6637H100.238Z" fill="#FFC107"/>
<path d="M43.7176 68.8424C43.6472 72.0199 46.2831 74.6001 49.4588 74.6001H96.8237C98.7084 74.6001 100.234 76.1267 100.234 78.0124C100.234 79.8981 98.7084 81.4247 96.8237 81.4247H49.2107C47.7184 81.4247 46.2898 81.1597 44.9651 80.6765C44.898 80.653 44.8343 80.6262 44.7673 80.5993C40.3239 78.8445 37.1179 74.6102 36.8664 69.6108C36.8631 69.5236 36.8597 69.4397 36.8564 69.3524C36.8564 69.2551 36.853 69.1545 36.853 69.0572V68.7518C36.967 61.9574 42.5271 56.4648 49.3448 56.4648H96.8237C98.7084 56.4648 100.234 57.9915 100.234 59.8771V59.9207C100.234 61.8064 98.7084 63.333 96.8237 63.333H49.3448C46.273 63.333 43.7847 65.7824 43.7176 68.8391V68.8424Z" fill="#FD7E14"/>
<path d="M36.853 69.0606C36.853 69.1579 36.853 69.2585 36.8564 69.3558C36.8497 69.2283 36.8497 69.0975 36.8497 68.97C36.8497 68.8995 36.8497 68.8257 36.8497 68.7552V69.0606H36.853Z" fill="#D01173"/>
<path d="M97.0618 74.6001H49.5527C46.3233 74.6001 43.7143 72.0837 43.7143 68.97C43.7143 65.8563 46.3233 63.3364 49.5527 63.3364H97.1993C94.664 63.9639 92.7827 66.2556 92.7827 68.9868C92.7827 71.718 94.597 73.9257 97.0618 74.6001Z" fill="#8ED1FC"/>
<path d="M57.8493 27.5691L62.9466 40.1212C63.4094 41.2419 63.7112 42.0069 63.8554 42.4162C63.9963 42.8256 64.07 43.2081 64.07 43.5637C64.07 44.01 63.8822 44.4126 63.51 44.7784C63.1378 45.1441 62.6917 45.3253 62.1753 45.3253C61.7125 45.3253 61.347 45.2045 61.0821 44.9662C60.8138 44.7247 60.5824 44.3657 60.3879 43.8858L59.0264 40.4937H51.2865L49.9786 43.9395C49.8009 44.4026 49.5795 44.7515 49.3113 44.9797C49.043 45.2078 48.6808 45.3253 48.218 45.3253C47.6647 45.3253 47.222 45.1474 46.8833 44.7918C46.5446 44.4361 46.377 44.0368 46.377 43.5906C46.377 43.2886 46.4172 43.0068 46.4977 42.7484C46.5782 42.49 46.7157 42.1109 46.9102 41.6143L52.5407 27.3812C52.7721 26.8645 53.0068 26.4988 53.2483 26.2874C53.4897 26.0727 53.7815 25.9015 54.1302 25.7673C54.4757 25.6331 54.811 25.566 55.1296 25.566C56.4106 25.566 57.3194 26.2337 57.8526 27.5691H57.8493ZM58.0069 37.5041L55.0961 29.6527L52.2657 37.5041H58.0035H58.0069Z" fill="white"/>
<path d="M65.2672 38.2792C65.2672 37.7289 65.4617 37.3229 65.8541 37.0646C66.2464 36.8062 66.8869 36.6787 67.7756 36.6787H70.6865C71.6288 36.6787 72.2928 36.7894 72.6751 37.0109C73.0574 37.2323 73.2485 37.6484 73.2485 38.2523C73.2485 38.8563 73.044 39.2723 72.6348 39.4938C72.2257 39.7152 71.6825 39.826 71.0084 39.826H68.1512C67.4738 39.826 66.944 39.7991 66.5617 39.7454C66.1794 39.6918 65.8675 39.5542 65.626 39.3328C65.3846 39.1113 65.2672 38.759 65.2672 38.2792Z" fill="white"/>
<path d="M89.6639 27.9181C89.6639 28.3979 89.5566 28.8408 89.3454 29.24C89.1307 29.6393 88.6411 30.2936 87.8765 31.2029L78.7215 42.017H88.3024C89.0503 42.017 89.5399 42.0707 89.7713 42.178C90.0563 42.3022 90.2676 42.5001 90.4118 42.7652C90.5526 43.0336 90.6264 43.2819 90.6264 43.5134C90.6264 43.8154 90.5426 44.1039 90.3715 44.3824C90.2039 44.6576 89.9222 44.8421 89.5298 44.9293C89.3152 44.983 88.9061 45.0099 88.3024 45.0099H77.038C76.4344 45.0099 75.9448 44.9864 75.5692 44.9428C75.1969 44.8992 74.8918 44.7784 74.6604 44.5837C74.1272 44.1375 73.8589 43.5973 73.8589 42.9564C73.8589 42.7082 73.8891 42.4968 73.9528 42.329C74.0165 42.1612 74.1607 41.923 74.3921 41.621C74.6235 41.3191 74.9253 40.9533 75.3009 40.5272L85.1233 28.8844H77.142C76.7328 28.8844 76.4176 28.871 76.1929 28.8441C75.9716 28.8173 75.7704 28.7502 75.5926 28.6428C75.3445 28.5019 75.16 28.314 75.046 28.0825C74.9286 27.851 74.8716 27.6194 74.8716 27.3879C74.8716 27.1396 74.9387 26.8813 75.0729 26.6129C75.207 26.3445 75.4048 26.1599 75.6731 26.0525C75.9582 25.9452 76.4545 25.8915 77.1688 25.8915H87.3366C88.1918 25.8915 88.792 26.0559 89.1374 26.3847C89.4829 26.7135 89.6572 27.2269 89.6572 27.9214L89.6639 27.9181Z" fill="white"/>
</svg>
