<svg width="107" height="75" viewBox="0 0 107 75" fill="none" xmlns="http://www.w3.org/2000/svg">
<path d="M53.2226 74.1087C68.0459 74.1087 80.0626 72.6268 80.0626 70.7987C80.0626 68.9706 68.0459 67.4887 53.2226 67.4887C38.3992 67.4887 26.3826 68.9706 26.3826 70.7987C26.3826 72.6268 38.3992 74.1087 53.2226 74.1087Z" fill="#FEDD8D"/>
<path d="M32.7768 53.7301L30.7695 54.7466L37.732 68.4941L39.7392 67.4775L32.7768 53.7301Z" fill="#DD9E00"/>
<path d="M73.427 53.3855L66.4646 67.1329L68.4719 68.1495L75.4343 54.402L73.427 53.3855Z" fill="#7FBBDD"/>
<path d="M99.7426 17.0487C95.8926 14.9587 91.0726 16.3887 88.9826 20.2387L87.4326 22.5187C87.1026 22.9987 86.4426 23.0587 86.0226 22.6787C86.0226 22.6787 86.0226 22.6787 86.0126 22.6687C85.7526 22.4287 85.6526 22.0587 85.7626 21.7187L87.9426 14.5587C89.2226 10.3687 86.8626 5.93869 82.6726 4.65869C80.5726 4.01869 78.4226 4.28872 76.6326 5.24872C74.8426 6.19872 73.4126 7.83871 72.7726 9.92871L70.5926 17.0887C70.4926 17.4287 70.2026 17.6887 69.8426 17.7387C69.8426 17.7387 69.8426 17.7387 69.8226 17.7387C69.2526 17.8287 68.7426 17.3987 68.7426 16.8187L68.7226 14.0587C69.1426 9.69871 65.9326 5.81869 61.5726 5.40869C57.7526 5.04869 54.3126 7.45871 53.2326 10.9887C53.0826 11.4887 52.9726 12.0187 52.9226 12.5587L53.0526 35.3887L53.0726 39.3887C53.3426 41.9487 54.1226 44.4087 55.3226 46.6487C57.7026 51.0687 61.7626 54.5887 66.9426 56.1687C69.1926 56.8587 71.4726 57.1187 73.7026 57.0087C74.0326 56.9887 74.3726 56.9687 74.7026 56.9287C77.2326 56.6687 79.6826 55.9187 81.9026 54.7487C84.1526 53.5587 86.1726 51.9487 87.8226 49.9787L90.0726 46.6787L93.9826 40.9387L102.933 27.8087C103.193 27.3287 103.403 26.8287 103.553 26.3287C104.633 22.7887 103.123 18.8787 99.7526 17.0487H99.7426Z" fill="#8ED1FC"/>
<path d="M77.6625 45.4287C78.1125 49.7887 75.2525 56.1887 79.6125 55.7387L99.0925 51.1987C103.452 50.7487 106.622 46.8487 106.172 42.4887C105.722 38.1287 101.822 34.9587 97.4625 35.4087L84.7425 36.7187C80.3825 37.1687 77.2125 41.0687 77.6625 45.4287Z" fill="#8ED1FC"/>
<path d="M65.5427 39.0387C69.4418 39.0387 72.6027 35.8778 72.6027 31.9787C72.6027 28.0796 69.4418 24.9187 65.5427 24.9187C61.6435 24.9187 58.4827 28.0796 58.4827 31.9787C58.4827 35.8778 61.6435 39.0387 65.5427 39.0387Z" fill="white"/>
<path d="M61.8625 35.6087C63.6906 35.6087 65.1725 34.1268 65.1725 32.2987C65.1725 30.4706 63.6906 28.9887 61.8625 28.9887C60.0344 28.9887 58.5525 30.4706 58.5525 32.2987C58.5525 34.1268 60.0344 35.6087 61.8625 35.6087Z" fill="#003135"/>
<path d="M60.0526 32.4887C60.8313 32.4887 61.4626 31.8574 61.4626 31.0787C61.4626 30.3 60.8313 29.6687 60.0526 29.6687C59.2739 29.6687 58.6426 30.3 58.6426 31.0787C58.6426 31.8574 59.2739 32.4887 60.0526 32.4887Z" fill="white"/>
<path d="M79.3124 42.0287C83.2116 42.0287 86.3724 38.8678 86.3724 34.9687C86.3724 31.0696 83.2116 27.9087 79.3124 27.9087C75.4133 27.9087 72.2524 31.0696 72.2524 34.9687C72.2524 38.8678 75.4133 42.0287 79.3124 42.0287Z" fill="white"/>
<path d="M75.5226 38.3787C77.3507 38.3787 78.8326 36.8968 78.8326 35.0687C78.8326 33.2406 77.3507 31.7587 75.5226 31.7587C73.6946 31.7587 72.2126 33.2406 72.2126 35.0687C72.2126 36.8968 73.6946 38.3787 75.5226 38.3787Z" fill="#003135"/>
<path d="M73.3926 35.1187C74.1714 35.1187 74.8026 34.4874 74.8026 33.7087C74.8026 32.93 74.1714 32.2987 73.3926 32.2987C72.6139 32.2987 71.9827 32.93 71.9827 33.7087C71.9827 34.4874 72.6139 35.1187 73.3926 35.1187Z" fill="white"/>
<path d="M73.6124 65.9087H67.4324C66.1014 65.9087 65.0225 66.9855 65.0225 68.3137C65.0225 69.642 66.1014 70.7187 67.4324 70.7187H73.6124C74.9434 70.7187 76.0224 69.642 76.0224 68.3137C76.0224 66.9855 74.9434 65.9087 73.6124 65.9087Z" fill="#7FBBDD"/>
<path d="M80.0826 46.2687C80.0826 47.7787 79.3126 49.1287 78.0826 50.0487C77.0526 50.8187 75.7126 51.2887 74.2426 51.2887C72.7726 51.2887 71.4326 50.8187 70.4026 50.0487C69.1826 49.1287 68.4026 47.7787 68.4026 46.2687C68.4026 45.2987 68.7326 44.3887 69.2826 43.6287C69.7326 42.9987 70.6226 42.8687 71.2726 43.2987L73.4226 44.7187C73.9126 45.0487 74.5626 45.0487 75.0526 44.7187L77.2026 43.2987C77.8526 42.8687 78.7426 42.9987 79.2026 43.6287C79.7626 44.3987 80.0826 45.2987 80.0826 46.2687Z" fill="#003135"/>
<path d="M78.0826 50.0487C77.0526 50.8187 75.7126 51.2887 74.2426 51.2887C72.7726 51.2887 71.4326 50.8187 70.4026 50.0487C70.5826 48.3287 72.2326 46.9887 74.2426 46.9887C76.2526 46.9887 77.9026 48.3287 78.0826 50.0487Z" fill="#E775A5"/>
<path d="M6.08246 17.6287C9.91246 15.4887 14.7425 16.8687 16.8825 20.6987L18.4624 22.9587C18.7924 23.4287 19.4525 23.4887 19.8825 23.0987C19.8825 23.0987 19.8825 23.0987 19.8925 23.0887C20.1525 22.8487 20.2425 22.4687 20.1325 22.1287L17.8725 14.9987C16.5525 10.8287 18.8525 6.3687 23.0225 5.0387C25.1125 4.3787 27.2724 4.61872 29.0724 5.55872C30.8724 6.48872 32.3225 8.10871 32.9825 10.1987L35.2424 17.3287C35.3524 17.6687 35.6424 17.9187 35.9924 17.9687C35.9924 17.9687 35.9925 17.9687 36.0125 17.9687C36.5825 18.0487 37.0925 17.6187 37.0825 17.0387L37.0625 14.2787C36.6025 9.91872 39.7525 6.00871 44.1125 5.54871C47.9325 5.13871 51.3925 7.50872 52.5125 11.0287C52.6725 11.5287 52.7825 12.0587 52.8425 12.5987L52.9725 35.4287L52.9924 39.4287C52.7524 41.9887 52.0024 44.4587 50.8224 46.7187C48.4924 51.1587 44.4725 54.7387 39.3125 56.3787C37.0625 57.0887 34.7925 57.3787 32.5625 57.2887C32.2325 57.2787 31.8925 57.2487 31.5625 57.2287C29.0225 56.9987 26.5725 56.2787 24.3325 55.1387C22.0725 53.9787 20.0324 52.3887 18.3524 50.4387L16.0625 47.1587L12.0925 41.4687L2.99245 28.4387C2.72245 27.9587 2.51245 27.4687 2.35245 26.9687C1.23245 23.4487 2.70246 19.5087 6.05246 17.6387L6.08246 17.6287Z" fill="#FDBC11"/>
<path d="M28.5526 45.7287C28.1026 50.0887 30.9626 56.4887 26.6026 56.0387L7.12256 51.4987C2.76256 51.0487 -0.407443 47.1487 0.0425569 42.7887C0.492557 38.4287 4.39256 35.2587 8.75256 35.7087L21.4726 37.0187C25.8326 37.4687 29.0026 41.3687 28.5526 45.7287Z" fill="#FDBC11"/>
<path d="M39.2026 36.5687C43.1017 36.5687 46.2626 33.4078 46.2626 29.5087C46.2626 25.6096 43.1017 22.4487 39.2026 22.4487C35.3034 22.4487 32.1426 25.6096 32.1426 29.5087C32.1426 33.4078 35.3034 36.5687 39.2026 36.5687Z" fill="white"/>
<path d="M42.7326 34.2387C44.5607 34.2387 46.0426 32.7568 46.0426 30.9287C46.0426 29.1006 44.5607 27.6187 42.7326 27.6187C40.9045 27.6187 39.4226 29.1006 39.4226 30.9287C39.4226 32.7568 40.9045 34.2387 42.7326 34.2387Z" fill="#003135"/>
<path d="M39.9027 31.2987C40.6814 31.2987 41.3127 30.6674 41.3127 29.8887C41.3127 29.11 40.6814 28.4787 39.9027 28.4787C39.124 28.4787 38.4927 29.11 38.4927 29.8887C38.4927 30.6674 39.124 31.2987 39.9027 31.2987Z" fill="white"/>
<path d="M25.9025 41.1987C29.8017 41.1987 32.9625 38.0378 32.9625 34.1387C32.9625 30.2396 29.8017 27.0787 25.9025 27.0787C22.0034 27.0787 18.8425 30.2396 18.8425 34.1387C18.8425 38.0378 22.0034 41.1987 25.9025 41.1987Z" fill="white"/>
<path d="M29.2927 39.0187C31.1207 39.0187 32.6027 37.5368 32.6027 35.7087C32.6027 33.8806 31.1207 32.3987 29.2927 32.3987C27.4646 32.3987 25.9827 33.8806 25.9827 35.7087C25.9827 37.5368 27.4646 39.0187 29.2927 39.0187Z" fill="#003135"/>
<path d="M26.4725 36.0787C27.2512 36.0787 27.8825 35.4474 27.8825 34.6687C27.8825 33.89 27.2512 33.2587 26.4725 33.2587C25.6938 33.2587 25.0625 33.89 25.0625 34.6687C25.0625 35.4474 25.6938 36.0787 26.4725 36.0787Z" fill="white"/>
<path d="M32.9525 70.7887H39.1325C40.4635 70.7887 41.5425 69.7119 41.5425 68.3837C41.5425 67.0554 40.4635 65.9787 39.1325 65.9787H32.9525C31.6215 65.9787 30.5425 67.0554 30.5425 68.3837C30.5425 69.7119 31.6215 70.7887 32.9525 70.7887Z" fill="#DD9E00"/>
<path d="M39.4625 70.7987H45.6425C46.9735 70.7987 48.0525 69.722 48.0525 68.3937C48.0525 67.0655 46.9735 65.9887 45.6425 65.9887H39.4625C38.1315 65.9887 37.0525 67.0655 37.0525 68.3937C37.0525 69.722 38.1315 70.7987 39.4625 70.7987Z" fill="#FDBC11"/>
<path d="M31.0625 43.4587C31.4325 44.9187 32.5125 46.0387 33.9325 46.6287C35.1125 47.1187 36.5325 47.2487 37.9625 46.8787C39.3925 46.5087 40.5725 45.7287 41.3825 44.7287C42.3425 43.5387 42.7625 42.0287 42.3825 40.5687C42.1425 39.6287 41.6025 38.8287 40.8725 38.2287C40.2825 37.7287 39.3825 37.8287 38.8625 38.3987L37.1325 40.2987C36.7325 40.7387 36.1125 40.8987 35.5525 40.6987L33.1225 39.8587C32.3825 39.6087 31.5625 39.9487 31.2725 40.6787C30.9225 41.5587 30.8325 42.5187 31.0725 43.4587H31.0625Z" fill="#003135"/>
<path d="M33.9325 46.6287C35.1125 47.1187 36.5325 47.2487 37.9625 46.8787C39.3925 46.5087 40.5726 45.7287 41.3826 44.7287C40.7826 43.1087 38.8526 42.2087 36.9026 42.7087C34.9526 43.2087 33.6925 44.9187 33.9325 46.6287Z" fill="#E775A5"/>
<path d="M40.4977 53.7835L38.4905 54.8001L45.4529 68.5476L47.4602 67.531L40.4977 53.7835Z" fill="#FDBC11"/>
<path d="M69.0825 68.3087C69.0825 68.9687 68.8125 69.5687 68.3825 70.0087C67.9425 70.4487 67.3425 70.7187 66.6725 70.7187H60.4825C59.1525 70.7187 58.0725 69.6387 58.0725 68.3087C58.0725 67.6487 58.3425 67.0487 58.7825 66.6087C58.9225 66.4687 59.0825 66.3387 59.2525 66.2387L65.7025 53.4887L66.7025 53.9987L67.7025 54.5087L61.9325 65.9087H66.6525C67.9825 65.9087 69.0625 66.9987 69.0625 68.3187L69.0825 68.3087Z" fill="#8ED1FC"/>
<path d="M30.4827 21.5687C26.1327 23.4487 21.0227 24.5187 19.0627 23.9487C17.1027 23.3787 19.0327 21.3987 23.3827 19.5187C27.7327 17.6387 32.8527 16.5687 34.8127 17.1387C36.7727 17.7087 34.8327 19.6887 30.4927 21.5687H30.4827Z" fill="#424242"/>
<path d="M18.3126 23.4087L14.1526 10.9087C13.8626 10.0387 15.7926 8.4987 19.2126 7.0187C23.5626 5.1387 28.6826 4.0687 30.6426 4.6387C31.0626 4.7587 31.3027 4.9487 31.3827 5.1787L35.5426 17.6787C35.4626 17.4487 35.2227 17.2587 34.8027 17.1387C32.8427 16.5787 27.7226 17.6387 23.3726 19.5187C19.9526 20.9987 18.0226 22.5387 18.3126 23.4087Z" fill="#424242"/>
<mask id="mask0_412_357" style="mask-type:luminance" maskUnits="userSpaceOnUse" x="14" y="4" width="22" height="20">
<path d="M18.3126 23.4087L14.1526 10.9087C13.8626 10.0387 15.7926 8.4987 19.2126 7.0187C23.5626 5.1387 28.6826 4.0687 30.6426 4.6387C31.0626 4.7587 31.3027 4.9487 31.3827 5.1787L35.5426 17.6787C35.4626 17.4487 35.2227 17.2587 34.8027 17.1387C32.8427 16.5787 27.7226 17.6387 23.3726 19.5187C19.9526 20.9987 18.0226 22.5387 18.3126 23.4087Z" fill="white"/>
</mask>
<g mask="url(#mask0_412_357)">
<path d="M18.3126 23.4087L14.1526 10.9087C14.1526 10.9087 14.1526 10.8887 14.1526 10.8787L18.3126 23.3787C18.3126 23.3787 18.3126 23.3987 18.3126 23.4087Z" fill="#424242"/>
<path d="M18.3026 23.3787L14.1426 10.8787C14.1426 10.8787 14.1226 10.7787 14.1226 10.7287L18.2826 23.2287C18.2826 23.2787 18.2826 23.3287 18.3026 23.3787Z" fill="#424242"/>
<path d="M18.2826 23.2287L14.1226 10.7287C14.1226 10.7287 14.1226 10.6287 14.1426 10.5787L18.3026 23.0787C18.2926 23.1287 18.2826 23.1787 18.2826 23.2287Z" fill="#424242"/>
<path d="M18.3026 23.0787L14.1426 10.5787C14.1426 10.5787 14.1726 10.4787 14.1926 10.4287L18.3526 22.9287C18.3326 22.9787 18.3126 23.0287 18.3026 23.0787Z" fill="#424242"/>
<path d="M18.3526 22.9287L14.1926 10.4287C14.2126 10.3787 14.2326 10.3287 14.2626 10.2787L18.4226 22.7787C18.3926 22.8287 18.3726 22.8787 18.3526 22.9287Z" fill="#424242"/>
<path d="M18.4225 22.7787L14.2625 10.2787C14.2925 10.2287 14.3225 10.1687 14.3625 10.1187L18.5225 22.6187C18.4825 22.6687 18.4525 22.7287 18.4225 22.7787Z" fill="#424242"/>
<path d="M18.5226 22.6187L14.3625 10.1187C14.4025 10.0687 14.4425 10.0087 14.4925 9.9487L18.6525 22.4487C18.6025 22.5087 18.5626 22.5587 18.5226 22.6187Z" fill="#424242"/>
<path d="M18.6527 22.4487L14.4927 9.9487C14.5427 9.8887 14.5927 9.82871 14.6527 9.76871L18.8127 22.2687C18.7527 22.3287 18.7027 22.3887 18.6527 22.4487Z" fill="#424242"/>
<path d="M18.8026 22.2687L14.6426 9.76871C14.7026 9.70871 14.7626 9.6487 14.8326 9.5787L18.9926 22.0787C18.9226 22.1387 18.8626 22.2087 18.8026 22.2687Z" fill="#424242"/>
<path d="M18.9925 22.0887L14.8325 9.58871C14.9025 9.51871 14.9825 9.4587 15.0625 9.3887L19.2225 21.8887C19.1425 21.9587 19.0625 22.0287 18.9925 22.0887Z" fill="#424242"/>
<path d="M19.2225 21.8787L15.0625 9.37869C15.1525 9.30869 15.2425 9.22869 15.3425 9.15869L19.5025 21.6587C19.4025 21.7287 19.3125 21.8087 19.2225 21.8787Z" fill="#424242"/>
<path d="M19.5025 21.6587L15.3425 9.15869C15.4525 9.07869 15.5625 8.98869 15.6825 8.90869L19.8425 21.4087C19.7225 21.4887 19.6125 21.5787 19.5025 21.6587Z" fill="#424242"/>
<path d="M19.8426 21.4087L15.6826 8.90869C15.8226 8.80869 15.9626 8.71871 16.1226 8.61871L20.2826 21.1187C20.1226 21.2187 19.9826 21.3187 19.8426 21.4087Z" fill="#424242"/>
<path d="M20.2826 21.1187L16.1226 8.61871C16.3126 8.49871 16.5126 8.3787 16.7226 8.2587L20.8826 20.7587C20.6726 20.8787 20.4726 20.9987 20.2826 21.1187Z" fill="#424242"/>
<path d="M20.8827 20.7587L16.7227 8.2587C16.9827 8.1087 17.2726 7.94871 17.5726 7.79871L21.7327 20.2987C21.4327 20.4487 21.1527 20.6087 20.8827 20.7587Z" fill="#424242"/>
<path d="M21.7225 20.2987L17.5625 7.79871C18.0625 7.53871 18.6125 7.27871 19.2125 7.01871C19.5725 6.85871 19.9325 6.7087 20.3025 6.5687L24.4625 19.0687C24.0925 19.2087 23.7325 19.3587 23.3725 19.5187C22.7725 19.7787 22.2225 20.0387 21.7225 20.2987Z" fill="#424242"/>
<path d="M24.4725 19.0687L20.3125 6.5687C20.5125 6.4887 20.7225 6.40871 20.9325 6.33871L25.0925 18.8387C24.8825 18.9187 24.6825 18.9887 24.4725 19.0687Z" fill="#424242"/>
<path d="M25.0826 18.8387L20.9226 6.33871C21.0926 6.27871 21.2626 6.21869 21.4226 6.15869L25.5826 18.6587C25.4126 18.7187 25.2426 18.7787 25.0826 18.8387Z" fill="#424242"/>
<path d="M25.5926 18.6587L21.4326 6.15869C21.5826 6.10869 21.7426 6.04872 21.8926 5.99872L26.0526 18.4987C25.9026 18.5487 25.7426 18.6087 25.5926 18.6587Z" fill="#424242"/>
<path d="M26.0526 18.4987L21.8926 5.99872C22.0426 5.94872 22.1926 5.89869 22.3426 5.84869L26.5026 18.3487C26.3526 18.3987 26.2026 18.4487 26.0526 18.4987Z" fill="#424242"/>
<path d="M26.4925 18.3487L22.3325 5.84869C22.4825 5.79869 22.6325 5.74871 22.7825 5.70871L26.9425 18.2087C26.7925 18.2587 26.6425 18.2987 26.4925 18.3487Z" fill="#424242"/>
<path d="M26.9425 18.2087L22.7825 5.70871C22.9325 5.65871 23.0825 5.6187 23.2325 5.5687L27.3925 18.0687C27.2425 18.1087 27.0925 18.1587 26.9425 18.2087Z" fill="#424242"/>
<path d="M27.4027 18.0687L23.2427 5.5687C23.4027 5.5187 23.5527 5.47869 23.7127 5.43869L27.8727 17.9387C27.7227 17.9787 27.5627 18.0287 27.4027 18.0687Z" fill="#424242"/>
<path d="M27.8626 17.9287L23.7026 5.42871C23.8626 5.38871 24.0126 5.33871 24.1726 5.29871L28.3326 17.7987C28.1726 17.8387 28.0226 17.8787 27.8626 17.9287Z" fill="#424242"/>
<path d="M28.3326 17.8087L24.1726 5.30872C24.3326 5.26872 24.4826 5.22869 24.6426 5.18869L28.8026 17.6887C28.6426 17.7287 28.4926 17.7687 28.3326 17.8087Z" fill="#424242"/>
<path d="M28.8026 17.6787L24.6426 5.17871C24.8026 5.13871 24.9626 5.0987 25.1126 5.0687L29.2726 17.5687C29.1126 17.6087 28.9626 17.6387 28.8026 17.6787Z" fill="#424242"/>
<path d="M29.2726 17.5687L25.1125 5.0687C25.2725 5.0287 25.4326 4.99871 25.5826 4.95871L29.7425 17.4587C29.5825 17.4887 29.4326 17.5287 29.2726 17.5687Z" fill="#424242"/>
<path d="M29.7525 17.4587L25.5925 4.95871C25.7525 4.92871 25.9125 4.8887 26.0725 4.8587L30.2325 17.3587C30.0725 17.3887 29.9125 17.4187 29.7525 17.4587Z" fill="#424242"/>
<path d="M30.2225 17.3587L26.0625 4.8587C26.2225 4.8287 26.3825 4.79871 26.5425 4.76871L30.7025 17.2687C30.5425 17.2987 30.3825 17.3287 30.2225 17.3587Z" fill="#424242"/>
<path d="M30.7125 17.2687L26.5525 4.76871C26.7225 4.73871 26.8825 4.70869 27.0525 4.68869L31.2125 17.1887C31.0525 17.2187 30.8825 17.2387 30.7125 17.2687Z" fill="#424242"/>
<path d="M31.2025 17.1887L27.0425 4.68869C27.2225 4.65869 27.3925 4.6387 27.5625 4.6087L31.7225 17.1087C31.5525 17.1287 31.3725 17.1587 31.2025 17.1887Z" fill="#424242"/>
<path d="M31.7225 17.1087L27.5625 4.6087C27.7525 4.5787 27.9425 4.55871 28.1325 4.54871L32.2925 17.0487C32.1125 17.0687 31.9225 17.0887 31.7225 17.1087Z" fill="#424242"/>
<path d="M32.2926 17.0487L28.1326 4.54871C28.3726 4.52871 28.5926 4.50872 28.8126 4.49872L32.9726 16.9987C32.7526 17.0087 32.5326 17.0287 32.2926 17.0487Z" fill="#424242"/>
<path d="M32.9725 16.9987L28.8125 4.49873C29.5625 4.46873 30.1825 4.49872 30.6425 4.63872C31.0625 4.75872 31.3025 4.94872 31.3825 5.17872L35.5425 17.6787C35.4625 17.4487 35.2225 17.2587 34.8025 17.1387C34.3425 17.0087 33.7225 16.9687 32.9725 16.9987Z" fill="#424242"/>
</g>
<path d="M25.5626 16.6787L7.30258 14.5187C6.55258 14.4287 6.23257 13.5187 6.76257 12.9887L19.3126 0.268701C19.5126 0.068701 19.7826 -0.0313088 20.0626 0.00869121L38.3226 2.16869C39.0726 2.25869 39.3926 3.16869 38.8626 3.69869L26.3126 16.4187C26.1126 16.6187 25.8426 16.7187 25.5626 16.6787Z" fill="#626262"/>
</svg>
