<?xml version="1.0" encoding="UTF-8"?>
<svg id="Layer_1" data-name="Layer 1" xmlns="http://www.w3.org/2000/svg" viewBox="0 0 600 600">
  <defs>
    <style>
      .cls-1 {
        fill: #f4b300;
      }
    </style>
  </defs>
  <path class="cls-1" d="M588.18,163.26c-18.19,95.94-5.86,210.14-53.14,297.41-73.53,135.78-247.14,177.8-376.35,92.84-36.15-23.79-101.5-87.95-129.92-121.82-49.78-59.34,20.17-132.87,79.99-87.39,11.58,8.81,37.87,42.12,47.24,45.97,7.69,3.14,19.53,1.46,25.06-4.78,3.96-4.48,5.15-12.96,4.07-18.75-12.32-82.38-42.42-168.72-53.36-250.47-11.13-83.2,95.3-106.99,117.97-21.02,12.44,47.28,17.55,110.99,33.5,154.79,6.24,17.14,24.98,11.61,27.07-6.57,6.91-60.61-5.53-133.36.45-195.27,13.82-64.68,111.4-58.56,117.11,5.08,5.79,64.64-7.32,141.53-.07,205.13,2.17,19.05,19.68,24.5,28.98,6.61,7.32-36.78,4.63-79.69,12.88-115.73,16.66-72.86,117.86-58.59,118.53,13.97Z"/>
</svg>