<?xml version="1.0" encoding="UTF-8"?>
<svg id="uuid-9c350f38-b5ab-498e-a5fe-8b710d84b306" data-name="Layer 1" xmlns="http://www.w3.org/2000/svg" viewBox="0 0 600 600">
  <defs>
    <style>
      .uuid-f83ead22-d9ec-4553-a066-c3cc2287673f {
        fill: #fff;
      }

      .uuid-2d04c588-0793-4829-a8cb-bcf55ffa4c72 {
        fill: #8ed1fc;
      }
    </style>
  </defs>
  <circle class="uuid-2d04c588-0793-4829-a8cb-bcf55ffa4c72" cx="298.98" cy="300" r="298.87"/>
  <g>
    <path class="uuid-f83ead22-d9ec-4553-a066-c3cc2287673f" d="M304.54,441.18c-3.32,1.85-6.57.69-9.35-.87-50.59-28.25-105.37-77.06-107.76-138.79l-.3-77.62c-.02-5.01,3.78-8.11,8.38-8.59,29.81-3.1,59.25-13.36,81.24-33.97,6.39-5.99,11.25-12.52,15.85-19.89,2.9-4.66,10.04-4.56,13.72-.86,10.86,19.77,29.89,33.73,50.51,42.38,15.38,6.46,31.21,9.84,47.77,11.68,3.95.44,7.93,3.5,7.95,7.78l.33,78.22c-1.89,62.09-57.23,112.04-108.33,140.53h0Z"/>
    <path class="uuid-2d04c588-0793-4829-a8cb-bcf55ffa4c72" d="M285.73,378.47c5.09,5.1,13.97,4.81,18.91-.14l54.24-54.25c5.66-5.66,4.62-14.26-.79-19.44-5.84-5.6-14.5-5.81-20.35.04l-42.98,42.98-18.54-18.41c-5.34-5.31-13.83-4.22-18.91.49-5.17,4.8-6.57,13.66-1.18,19.06l29.58,29.67h0Z"/>
  </g>
</svg>