<?xml version="1.0" encoding="UTF-8"?>
<svg id="uuid-7da45a3d-a9b1-47c2-b288-e5787ace052b" data-name="Layer 1" xmlns="http://www.w3.org/2000/svg" viewBox="0 0 600 600">
  <defs>
    <style>
      .uuid-f1e32390-b9cb-4b91-abc4-c5f99333ee81 {
        fill: #fff;
      }

      .uuid-2f035123-0325-4aa3-96e9-a8b30d372bee {
        fill: #f4b300;
      }
    </style>
  </defs>
  <circle class="uuid-2f035123-0325-4aa3-96e9-a8b30d372bee" cx="299.78" cy="300.62" r="298.87"/>
  <g>
    <path class="uuid-f1e32390-b9cb-4b91-abc4-c5f99333ee81" d="M370.77,260.2l.07-33.34c.08-39.08-31.64-70.94-70.72-71.02s-70.93,31.65-71.01,70.73l-.07,33.34c-20.92,1.88-37.33,19.44-37.38,40.86l-.07,36.25c-.12,59.74,48.21,108.26,107.94,108.38s108.26-48.21,108.38-107.94l.07-36.25c.04-21.42-16.3-39.05-37.21-41.01ZM251.49,226.61c.05-26.74,21.85-48.44,48.58-48.39,12.95.03,25.11,5.09,34.25,14.27,9.14,9.18,14.16,21.37,14.13,34.32l-.07,33.17-96.97-.2.07-33.17h0Z"/>
    <path class="uuid-2f035123-0325-4aa3-96e9-a8b30d372bee" d="M319.19,377.23c2.54,7.34-2.84,14.78-11.48,14.77l-18.69-.04c-8.64-.02-13.99-7.49-11.42-14.81l7.92-22.65c-5.62-4.05-9.27-10.65-9.25-18.09.02-12.27,9.99-22.19,22.26-22.17,12.27.02,22.19,9.99,22.17,22.26-.02,7.45-3.69,14.03-9.33,18.05l7.83,22.68Z"/>
  </g>
</svg>