<?xml version="1.0" encoding="UTF-8"?>
<svg id="uuid-1dbdb342-fcf5-4510-b943-c35123a45f35" data-name="Layer 1" xmlns="http://www.w3.org/2000/svg" viewBox="0 0 600 600">
  <defs>
    <style>
      .uuid-e906c3bc-325e-47fe-a96e-d543c33f99dd {
        fill: #f4b300;
      }
    </style>
  </defs>
  <path class="uuid-e906c3bc-325e-47fe-a96e-d543c33f99dd" d="M598.34,298.76c0,29.05-11.77,55.34-30.81,74.37-19.03,19.04-45.33,30.81-74.37,30.81h-87.98v87.99c0,58.09-47.09,105.18-105.18,105.18s-105.18-47.09-105.18-105.18v-87.99h-87.98c-58.09,0-105.18-47.09-105.18-105.18s47.09-105.18,105.18-105.18h87.98v-87.98C194.82,47.51,241.91.42,300,.42c29.04,0,55.34,11.77,74.37,30.81,19.04,19.03,30.81,45.32,30.81,74.37v87.98h87.98c58.09,0,105.18,47.09,105.18,105.18Z"/>
</svg>