<?xml version="1.0" encoding="UTF-8"?>
<svg id="Layer_1" data-name="Layer 1" xmlns="http://www.w3.org/2000/svg" viewBox="0 0 600 600">
  <defs>
    <style>
      .cls-1 {
        fill: #f4b300;
      }
    </style>
  </defs>
  <path class="cls-1" d="M337.4,40.18l43.71,134.52c5.29,16.27,20.45,27.28,37.55,27.28h141.44c38.25,0,54.15,48.95,23.21,71.43l-114.43,83.14c-13.84,10.05-19.63,27.88-14.34,44.15l43.71,134.52c11.82,36.38-29.82,66.63-60.76,44.15l-114.43-83.14c-13.84-10.05-32.58-10.05-46.42,0l-114.43,83.14c-30.94,22.48-72.58-7.77-60.76-44.15l43.71-134.52c5.29-16.27-.5-34.09-14.34-44.15l-114.43-83.14c-30.94-22.48-15.04-71.43,23.21-71.43h141.44c17.11,0,32.27-11.01,37.55-27.28l43.71-134.52c11.82-36.38,63.29-36.38,75.1,0Z"/>
</svg>