<?xml version="1.0" encoding="UTF-8"?>
<svg id="Layer_1" data-name="Layer 1" xmlns="http://www.w3.org/2000/svg" xmlns:xlink="http://www.w3.org/1999/xlink" viewBox="0 0 375 250">
  <defs>
    <style>
      .cls-1 {
        stroke: #6cb0a6;
        stroke-linejoin: round;
        stroke-width: 3.37px;
      }

      .cls-1, .cls-2, .cls-3 {
        fill: none;
      }

      .cls-1, .cls-3 {
        stroke-linecap: round;
      }

      .cls-4 {
        fill: #004365;
      }

      .cls-5 {
        fill: #90bcc3;
      }

      .cls-6 {
        fill: #e18000;
      }

      .cls-7 {
        fill: #92bbc2;
      }

      .cls-8 {
        fill: #de7e00;
      }

      .cls-9 {
        fill: #d4ce73;
      }

      .cls-10 {
        fill: #f5a000;
      }

      .cls-11 {
        fill: #fff;
      }

      .cls-12 {
        fill: #dd7b00;
      }

      .cls-13 {
        fill: #2e5338;
      }

      .cls-14 {
        fill: #5e96c7;
      }

      .cls-15 {
        fill: #fbebcd;
      }

      .cls-16 {
        fill: #0c8771;
      }

      .cls-17 {
        fill: #fbd088;
      }

      .cls-18 {
        fill: #0054b1;
      }

      .cls-19 {
        fill: #ff8500;
      }

      .cls-3 {
        stroke: #f5a000;
        stroke-miterlimit: 10;
        stroke-width: 12.87px;
      }

      .cls-20 {
        clip-path: url(#clippath);
      }

      .cls-21 {
        fill: #ffeac3;
      }
    </style>
    <clipPath id="clippath">
      <polygon class="cls-2" points="375.6 249.9 0 249.9 0 0 375.09 .25 375.6 249.9"/>
    </clipPath>
  </defs>
  <g class="cls-20">
    <g>
      <rect class="cls-21" x="1.16" y="10.66" width="373.15" height="223.21"/>
      <path class="cls-21" d="M375.11,124.38c0,53.83-43.63,97.48-97.46,97.48-39.96,0-74.32-24.05-89.35-58.47-15.04,34.42-49.38,58.47-89.35,58.47C45.12,221.85,1.48,178.21,1.48,124.38S45.12,26.92,98.95,26.92c39.95,0,74.3,24.05,89.35,58.45,15.04-34.4,49.38-58.45,89.35-58.45,53.83,0,97.46,43.64,97.46,97.46Z"/>
      <path class="cls-5" d="M-13.31,144.52s19.74-25.19,40.84-10.21c21.1,14.98,46.29,39.48,57.86,37.44s25.19-12.93,36.08-2.04c10.89,10.89,19.74,21.78,35.4,21.78s40.16-6.13,51.73,5.45c11.57,11.57,25.19,32.67,25.19,32.67l-249.82-1.36,2.72-83.73Z"/>
      <path class="cls-14" d="M15.98,184.33s18.34-11.58,43.43-8.2c25.09,3.38,108.08,35.22,108.08,35.22l33.29,9.65,36.67,7.24-217.61-2.9-3.86-41.01Z"/>
      <g>
        <path class="cls-7" d="M251.13,143.59h0c0,.24-.2.44-.44.44h-98.1c-.31,0-.53-.32-.41-.6,1.45-3.45,6.12-6.1,11.92-6.68.2-.02.36-.17.39-.37.91-5.35,7.61-9.53,15.82-9.69.18,0,.34-.12.4-.29,2.93-8.01,12.53-13.88,23.94-13.88,13.15,0,23.91,7.81,24.79,17.7.02.25.25.43.5.4,1.03-.13,2.09-.2,3.17-.2,9.95,0,18.02,5.9,18.02,13.17Z"/>
        <g>
          <path class="cls-7" d="M234.79,132.73c-.37-.37-.96-.37-1.33-.01-2.97,2.9-15.17,14.69-23.4,20.45-1.33.93-2.46,2.6-3.37,5.03-.36.96-1.78.7-1.78-.32v-24.04c0-.52-.42-.95-.95-.95h-.45c-.52,0-.95.42-.95.95v24.03c0,1.05-1.46,1.31-1.83.33-.92-2.44-2.04-4.13-3.39-5.06-8.23-5.76-20.43-17.55-23.4-20.45-.37-.36-.97-.36-1.33.01l-.32.32c-.37.37-.36.97,0,1.34,3.02,2.96,15.21,14.75,23.7,20.69,2.05,1.44,5.47,7.43,5.41,31.47-.03,11.8-.91,23.14-1.19,26.4-.04.52.34.97.85,1.02l.46.04c.51.05.97-.33,1.01-.85,0,0,0-.01,0-.02v2.99c0,.52.42.95.95.95h.45c.52,0,.95-.42.95-.95v-2.18c.01.11.02.17.02.18l1.39-.13c.52-.05.9-.5.85-1.02-.27-3.26-1.16-14.6-1.19-26.4-.06-24.04,3.37-30.04,5.41-31.47,8.49-5.94,20.68-17.73,23.7-20.69.37-.37.38-.97,0-1.34l-.32-.32Z"/>
          <path class="cls-7" d="M203.76,186.54c0,1.65-.03,3.29-.06,4.9-.04-1.6-.06-3.22-.06-4.86,0-2.08.01-4.07.06-5.95.04,1.87.06,3.84.06,5.91Z"/>
        </g>
      </g>
      <path class="cls-16" d="M414.62,205.06c0,38.55-33.33,26.83-84.08,26.83s-87.8,22.89-87.8-15.66,41.15-69.8,91.9-69.8,79.98,20.08,79.98,58.62Z"/>
      <path class="cls-1" d="M181.71-12.11s26.05,147.39,123.57,130.27C402.8,101.04,405.04,1.29,405.04,1.29"/>
      <g>
        <g>
          <path class="cls-12" d="M266.39,130.3c-8.19,12.44-11.84,34.24-5.22,47.84,2.36,4.83,6.17,8.21,10.98,10.94,1.83,1.08,2.44,3.43,1.36,5.26-.79,1.34-2.27,2.02-3.73,1.87-3.62-.39-7.27-1.66-10.6-3.69-17.32-11.06-16.77-35.89-9.21-52.67,2.68-5.73,5.99-11.05,11.19-15.01,3.63-2.63,7.98,1.97,5.23,5.46h0Z"/>
          <path class="cls-19" d="M272.61,131.24c-.23,13.62-20.49,13.62-20.72,0,.23-13.62,20.49-13.62,20.72,0Z"/>
        </g>
        <path class="cls-9" d="M313.73,193.93c-.12.99-.82,1.77-1.72,2.04-.37.1-.77.23-1.14.32-2.49.63-5.02.94-7.59.95-3.03.02-6.02-.42-8.94-1.31-3.4-1.06-6.58-3.58-8.47-6.62-1.88-2.95-2.93-6.19-3.27-9.62,0-.13-.03-.36-.02-.5.13-1.83.86-3.19,1.9-4.1.75-.66,1.13-1.64,1.02-2.63-.11-.99-.17-1.87-.15-2.52.06-2.08,1.62-2.85,2.92-2.51.75.19,1.17.98.94,1.72-.24.75-.57,1.9-.76,3.2h0c-.03.4-.01,1.2.65,1.4.1.03.19.05.26.08,1.03.19,2,.65,2.78,1.37,1.05.96,1.76,2.4,1.79,4.3h0s0,0,0,0v.04c-.24,1.66-.03,3.54.51,5.07,1.02,2.95,3.25,4.1,6.08,5.14,1.06.39,2.22.71,3.33.93,1.73.36,3.54.52,5.31.51.56,0,1.13-.04,1.68-.07l.78.1c1.34.16,2.29,1.38,2.12,2.71Z"/>
        <g>
          <path class="cls-12" d="M299.25,125.24c5.83,4.56,9.39,10.82,12.05,17.49,8.09,19.95,4.5,49.71-20.67,53.88-4.33.53-6.03-5.37-2.15-7.25,10.26-5.04,14.31-14.91,14.42-26.13.08-10.95-2.71-23.49-8.88-32.53-2.8-3.52,1.64-8.13,5.23-5.46h0Z"/>
          <path class="cls-19" d="M287.8,131.64c.23,13.62,20.49,13.62,20.72,0-.23-13.62-20.49-13.62-20.72,0Z"/>
        </g>
        <path class="cls-10" d="M317.36,120.6c-.85,49.73-73.98,49.73-74.82,0,.85-49.73,73.98-49.72,74.82,0Z"/>
        <path class="cls-15" d="M311.03,120.6c.63,28.03-28.34,35.27-49.83,24.86-25.03-13.33-7.88-70.01,18.76-45.29,13.51-15.11,31.52.1,31.07,20.43Z"/>
        <path class="cls-17" d="M290.9,130.23c7.26,6.24-1.24,12.73-10.95,12.63-9.7.1-18.21-6.39-10.95-12.63-15.62-8.54-6.64-28.55,10.95-27.94,17.58-.62,26.57,19.4,10.95,27.94Z"/>
        <circle class="cls-4" cx="244.5" cy="98.69" r="6.91"/>
        <path class="cls-4" d="M320.55,97.75c-.16,9.09-13.67,9.08-13.82,0,.16-9.09,13.67-9.08,13.82,0Z"/>
        <g>
          <path class="cls-4" d="M279.38,129.32c.05,2.82-3.32,2.84-3.31.02-.05-2.82,3.32-2.84,3.31-.02Z"/>
          <path class="cls-4" d="M283.84,129.32c.05,2.82-3.32,2.84-3.31.02-.05-2.82,3.32-2.84,3.31-.02Z"/>
        </g>
        <g>
          <path class="cls-4" d="M285.71,120.68c-4.07-.03-3.94-6.41.13-6.27,4.07.03,3.94,6.41-.13,6.27Z"/>
          <path class="cls-11" d="M287.2,117.1c-1.72-.01-1.67-2.72.05-2.66,1.72.01,1.67,2.72-.05,2.66Z"/>
        </g>
        <g>
          <path class="cls-4" d="M273.47,120.43c-4.07-.03-3.94-6.41.13-6.27,4.07.03,3.94,6.41-.13,6.27Z"/>
          <path class="cls-11" d="M274.97,116.82c-1.72-.01-1.67-2.72.05-2.66,1.72.01,1.67,2.72-.05,2.66Z"/>
        </g>
        <line class="cls-3" x1="278.82" y1="88.06" x2="278.82" y2="25.12"/>
      </g>
      <path class="cls-13" d="M132.22,128.22c-.12-.08-.18-.28-.18-.58,0-.17.02-.37.06-.6.03.16.06.32.07.48.03.23.05.46.05.7Z"/>
      <path class="cls-13" d="M132.22,128.22c-.12-.08-.18-.28-.18-.58.04-.04.09-.08.13-.12.03.23.05.46.05.7Z"/>
      <path class="cls-13" d="M132.22,128.22c-.12-.08-.18-.28-.18-.58,0-.17.02-.37.06-.6.03.16.06.32.07.48.03.23.05.46.05.7Z"/>
      <g>
        <g>
          <path class="cls-10" d="M87.43,62.09s2.45-11.87-2.25-16.41l6.7-2.38s1.1,9.82,7.98,15.06l-12.43,3.73Z"/>
          <path class="cls-6" d="M95.25,38.35c.98,4.18-1.61,8.36-5.79,9.35-4.18.98-8.36-1.61-9.35-5.79s1.61-8.36,5.79-9.35c4.18-.98,8.36,1.61,9.35,5.79Z"/>
        </g>
        <g>
          <path class="cls-10" d="M105.53,62.81s2.45-11.87-2.25-16.41l6.7-2.38s1.1,9.82,7.98,15.06l-12.43,3.73Z"/>
          <path class="cls-6" d="M113.35,39.08c.98,4.18-1.61,8.36-5.79,9.35-4.18.98-8.36-1.61-9.35-5.79-.98-4.18,1.61-8.36,5.79-9.35,4.18-.98,8.36,1.61,9.35,5.79Z"/>
        </g>
        <path class="cls-10" d="M90.88,75.29s-38.94,18.54-46.23-4.35c-7.28-22.89,15.61-19.77,45.79-1.04l.44,5.39Z"/>
        <path class="cls-10" d="M177.33,108.72c-3.44,7.53-10.96,12.35-19.22,12.35h-.24l-35.28-.4-11.68-.13-3.49-.04c-.15,0-.3-.03-.45-.07l-.82-.26-11.08-3.49-4.23-1.33-27.96-8.81c-.88-.28-1.33-1.26-.95-2.1l6.41-14.48,3.79-8.55,2.51-5.68c1.81-4.11,4.5-7.68,7.81-10.54,1.56-1.34,3.27-2.53,5.08-3.53,2.5-1.38,5.21-2.41,8.07-3.03,1.26-.27,2.52-.5,3.8-.68,2.25-.32,4.51-.49,6.77-.5,3.76-.04,7.51.34,11.19,1.11h0c4.66.98,9.19,2.61,13.47,4.85l37.85,19.89c9.18,4.82,12.99,15.98,8.68,25.41Z"/>
        <polygon class="cls-10" points="114.46 107.88 110.92 120.51 110.91 120.55 97.17 169.6 70.91 263.41 -9.15 262.02 21.39 194.2 46.77 137.82 68.32 89.97 98.57 104.95 114.46 107.88"/>
        <g>
          <path class="cls-4" d="M108.81,86.9c-7.22-.05-6.99-11.37.22-11.12,7.22.05,6.99,11.37-.22,11.12Z"/>
          <path class="cls-11" d="M111.46,80.5c-3.06-.02-2.96-4.82.1-4.72,3.06.02,2.96,4.82-.1,4.72Z"/>
        </g>
      </g>
      <path class="cls-8" d="M68.41,167.23c0,17.1-14.12,30.96-31.53,30.96-5.63,0-10.92-1.45-15.5-3.99l25.38-56.37c12.57,4.07,21.64,15.7,21.64,29.41Z"/>
      <path class="cls-8" d="M110.91,120.55l-13.74,49.05c-9.88-3.44-16.71-10.87-16.71-19.47,0-9.08,7.6-16.84,18.36-20.01-2.72-2.1-5.02-5.05-6.48-8.63-.83-2.03-1.32-4.11-1.5-6.14-.06-.66-.09-1.32-.08-1.96,1.14,1.23,2.6,2.34,4.31,3.3,3.02,1.71,6.83,2.94,11.08,3.49,1.54.2,3.13.32,4.77.33.14,0,.27,0,.41,0"/>
      <path class="cls-18" d="M-39.49-12.7v278.96h447.43V-12.7H-39.49ZM277.65,221.85c-39.96,0-74.32-24.05-89.35-58.47-15.04,34.42-49.38,58.47-89.35,58.47C45.12,221.85,1.48,178.21,1.48,124.38S45.12,26.92,98.95,26.92c39.95,0,74.3,24.05,89.35,58.45,15.04-34.4,49.38-58.45,89.35-58.45,53.83,0,97.46,43.64,97.46,97.46s-43.63,97.48-97.46,97.48Z"/>
    </g>
  </g>
</svg>