<svg width="317" height="122" viewBox="0 0 317 122" fill="none" xmlns="http://www.w3.org/2000/svg">
<path d="M317 18.1082V110.542H92.4651C87.6108 115.677 79.8771 119 71.186 119C62.4949 119 54.7612 115.677 49.9068 110.542H0V18.1082C0 8.10579 8.04812 0 17.9793 0H299.021C308.952 0 317 8.10579 317 18.1082Z" fill="#FFC107"/>
<path d="M196.384 41.5219L208.618 71.624C209.728 74.3156 210.453 76.1512 210.796 77.1309C211.136 78.1142 211.309 79.0302 211.309 79.8861C211.309 80.9542 210.86 81.9269 209.965 82.8005C209.067 83.6741 208.002 84.1126 206.764 84.1126C205.654 84.1126 204.78 83.8262 204.14 83.2497C203.5 82.6731 202.945 81.8102 202.474 80.6571L199.206 72.5224H180.631L177.493 80.7845C177.065 81.895 176.531 82.7297 175.891 83.2815C175.251 83.8368 174.374 84.1126 173.267 84.1126C171.944 84.1126 170.876 83.6847 170.066 82.8323C169.256 81.9799 168.849 81.0179 168.849 79.9498C168.849 79.2247 168.945 78.5527 169.139 77.9338C169.33 77.3148 169.663 76.4094 170.133 75.2104L183.648 41.0727C184.203 39.8348 184.769 38.9577 185.345 38.4484C185.922 37.9391 186.626 37.5182 187.46 37.1999C188.291 36.878 189.094 36.7189 189.862 36.7189C192.935 36.7189 195.114 38.3211 196.394 41.5219H196.384ZM196.769 65.3461L189.788 46.5159L182.997 65.3461H196.766H196.769Z" fill="#FFDB80"/>
<path d="M250.056 40.5599C251.378 41.6704 252.362 42.9614 253.002 44.4362C253.642 45.9111 253.964 47.4355 253.964 49.0165C253.964 51.2376 253.377 53.2218 252.202 54.9725C251.028 56.7233 249.33 58.0885 247.109 59.0717C253.087 60.8225 256.075 64.5574 256.075 70.28C256.075 73.9937 254.668 77.1769 251.849 79.8224C250.526 81.0603 248.754 81.9587 246.533 82.514C244.312 83.0692 241.539 83.3451 238.207 83.3451H223.989C222.581 83.3451 221.577 83.2284 220.979 82.9914C220.381 82.758 219.922 82.4998 219.603 82.2239C219.281 81.9481 219.08 81.7641 218.995 81.6793C218.567 81.3397 218.291 80.7491 218.164 79.9179C218.036 79.0867 217.973 77.8595 217.973 76.236V44.5954C217.973 42.7598 218.058 41.5007 218.227 40.818C218.397 40.1354 218.761 39.4953 219.317 38.8975C219.872 38.3422 220.512 37.9673 221.237 37.7764C221.962 37.5854 223.306 37.4899 225.273 37.4899H238.978C241.539 37.4899 243.707 37.7268 245.479 38.1937C247.251 38.6641 248.779 39.4528 250.059 40.5634L250.056 40.5599ZM244.867 50.2331C244.867 48.3126 244.142 46.8802 242.688 45.9429C241.921 45.4725 240.991 45.1436 239.901 44.9491C238.812 44.7581 237.309 44.6626 235.385 44.6626H227.186V56.1291H236.601C239.42 56.1291 241.5 55.6587 242.847 54.7214C244.191 53.7841 244.863 52.288 244.863 50.2367L244.867 50.2331ZM246.66 69.6398C246.66 67.5495 245.914 65.9686 244.418 64.9004C242.922 63.8323 240.552 63.2983 237.309 63.2983H227.19V76.1724H237.567C240.683 76.1724 242.978 75.6383 244.453 74.5702C245.928 73.5021 246.664 71.8574 246.664 69.6398H246.66Z" fill="#FFDB80"/>
<path d="M303.087 50.6788C303.087 51.7469 302.701 52.6771 301.934 53.4659C301.166 54.2581 300.183 54.6507 298.988 54.6507C297.962 54.6507 297.141 54.3748 296.523 53.8195C295.904 53.2643 295.147 52.0688 294.248 50.2332C293.308 48.3551 291.953 46.859 290.181 45.7484C288.409 44.6379 286.457 44.0826 284.32 44.0826C280.433 44.0826 277.37 45.5362 275.128 48.4365C272.886 51.3402 271.765 55.4819 271.765 60.8614C271.765 66.241 272.918 70.3614 275.224 72.968C276.334 74.2059 277.604 75.1467 279.033 75.7869C280.462 76.4271 282.138 76.7489 284.062 76.7489C286.793 76.7489 289.092 76.0239 290.948 74.5702C292.805 73.1201 294.16 71.1112 295.016 68.5505C295.826 66.0747 297.216 64.8368 299.179 64.8368C300.247 64.8368 301.195 65.2011 302.029 65.9262C302.861 66.6512 303.278 67.6345 303.278 68.8724C303.278 70.7929 302.648 72.8442 301.389 75.0194C300.13 77.1981 298.454 79.0762 296.36 80.6572C293.244 82.9632 289.251 84.1162 284.384 84.1162C278.064 84.1162 273.133 82.4503 269.589 79.1186C267.199 76.855 265.395 74.1458 264.178 70.9839C262.961 67.8255 262.353 64.324 262.353 60.4794C262.353 55.74 263.283 51.5772 265.14 47.9908C266.997 44.4044 269.6 41.628 272.953 39.6651C276.306 37.7021 280.115 36.7189 284.384 36.7189C288.14 36.7189 291.44 37.4651 294.28 38.9612C297.12 40.4573 299.295 42.3036 300.813 44.4999C302.327 46.6999 303.087 48.7583 303.087 50.6824V50.6788Z" fill="#FFDB80"/>
<path d="M99.3785 90.7442C116.566 90.7442 130.499 76.811 130.499 59.6234C130.499 42.4359 116.566 28.5027 99.3785 28.5027C82.191 28.5027 68.2578 42.4359 68.2578 59.6234C68.2578 76.811 82.191 90.7442 99.3785 90.7442Z" fill="white"/>
<path d="M99.3785 74.2377C107.435 74.2377 113.993 67.6839 113.993 59.6234C113.993 51.5665 107.439 45.0092 99.3785 45.0092C91.3216 45.0092 84.7643 51.5629 84.7643 59.6234C84.7643 67.6804 91.3181 74.2377 99.3785 74.2377Z" fill="black"/>
<path d="M91.5375 59.2167C94.9541 59.2167 97.7341 56.4368 97.7341 53.0202C97.7341 49.6036 94.9541 46.8236 91.5375 46.8236C88.1209 46.8236 85.3409 49.6036 85.3409 53.0202C85.3409 56.4368 88.1209 59.2167 91.5375 59.2167Z" fill="white"/>
<path d="M42.3221 90.7442C59.5096 90.7442 73.4429 76.811 73.4429 59.6234C73.4429 42.4359 59.5096 28.5027 42.3221 28.5027C25.1346 28.5027 11.2014 42.4359 11.2014 59.6234C11.2014 76.811 25.1346 90.7442 42.3221 90.7442Z" fill="white"/>
<path d="M42.322 74.2377C50.379 74.2377 56.9363 67.6839 56.9363 59.6234C56.9363 51.5665 50.3825 45.0092 42.322 45.0092C34.2651 45.0092 27.7078 51.5629 27.7078 59.6234C27.7078 67.6804 34.2615 74.2377 42.322 74.2377Z" fill="black"/>
<path d="M35.7295 57.4059C39.1461 57.4059 41.9261 54.6259 41.9261 51.2093C41.9261 47.7927 39.1461 45.0128 35.7295 45.0128C32.3129 45.0128 29.533 47.7927 29.533 51.2093C29.533 54.6259 32.3129 57.4059 35.7295 57.4059Z" fill="white"/>
<path d="M102 96.9707C102 101.58 100.472 105.904 97.8077 109.618C92.5073 117.022 82.7006 122 71.5 122C60.2994 122 50.4927 117.022 45.1923 109.618C42.528 105.904 41 101.58 41 96.9707C41 95.8806 41.8752 95 42.9585 95C44.0419 95 44.917 95.8806 44.917 96.9707C44.917 101.711 46.9003 106.093 50.2456 109.618C55.0943 114.742 62.819 118.059 71.5 118.059C80.181 118.059 87.9057 114.742 92.7544 109.618C96.0997 106.093 98.083 101.711 98.083 96.9707C98.083 95.8806 98.9616 95 100.041 95C101.121 95 102 95.8806 102 96.9707Z" fill="#FD7E14"/>
</svg>
