<svg width="318" height="136" viewBox="0 0 318 136" fill="none" xmlns="http://www.w3.org/2000/svg">
<path d="M299.964 0H18.0325C8.07351 0 0 8.11802 0 18.1319V110.705H318V18.1319C318 8.11802 309.926 0 299.967 0H299.964Z" fill="#FD7E14"/>
<path d="M41.2814 41.0094L53.5047 71.0853C54.6143 73.7744 55.3387 75.6085 55.6815 76.5873C56.0207 77.5697 56.1939 78.485 56.1939 79.3401C56.1939 80.4073 55.7451 81.3791 54.851 82.2519C53.9534 83.1248 52.8898 83.563 51.653 83.563C50.5434 83.563 49.6705 83.2767 49.0309 82.7007C48.3913 82.1247 47.8365 81.2625 47.3665 80.1105L44.1013 71.9828H25.542L22.4075 80.2377C21.9799 81.3473 21.4463 82.1813 20.8067 82.7325C20.1671 83.2873 19.2907 83.563 18.1847 83.563C16.863 83.563 15.7958 83.1354 14.9866 82.2838C14.1774 81.4321 13.771 80.4709 13.771 79.4037C13.771 78.6793 13.8664 78.0079 14.0608 77.3895C14.2516 76.7711 14.5838 75.8664 15.0538 74.6685L28.5563 40.5606C29.1111 39.3238 29.6765 38.4474 30.2525 37.9385C30.8285 37.4297 31.5317 37.0091 32.3657 36.6911C33.1961 36.3695 33.9983 36.2105 34.7651 36.2105C37.8359 36.2105 40.0127 37.8113 41.292 41.0094H41.2814ZM41.6665 64.8128L34.6909 45.999L27.9061 64.8128H41.663H41.6665Z" fill="#FFAE71"/>
<path d="M94.9062 40.0481C96.2279 41.1577 97.2103 42.4476 97.8499 43.9212C98.4895 45.3947 98.811 46.9178 98.811 48.4974C98.811 50.7166 98.2244 52.699 97.0512 54.4482C95.878 56.1975 94.1818 57.5615 91.9626 58.5439C97.9347 60.2931 100.921 64.0247 100.921 69.7424C100.921 73.4528 99.5143 76.6332 96.6978 79.2765C95.3762 80.5133 93.6058 81.4109 91.3866 81.9657C89.1674 82.5205 86.3969 82.7961 83.0681 82.7961H68.8624C67.4559 82.7961 66.4523 82.6795 65.8551 82.4427C65.2579 82.2095 64.7985 81.9515 64.4805 81.6759C64.1589 81.4003 63.9575 81.2165 63.8727 81.1317C63.4451 80.7925 63.1695 80.2023 63.0423 79.3719C62.915 78.5415 62.8514 77.3152 62.8514 75.6932V44.0802C62.8514 42.2461 62.9363 40.9881 63.1059 40.3061C63.2755 39.6241 63.6395 38.9845 64.1943 38.3873C64.7491 37.8325 65.3887 37.4579 66.1131 37.2671C66.8375 37.0762 68.1804 36.9808 70.1451 36.9808H83.8385C86.3969 36.9808 88.5631 37.2176 90.3335 37.6841C92.104 38.154 93.6305 38.9421 94.9098 40.0517L94.9062 40.0481ZM89.7257 49.713C89.7257 47.7942 89.0013 46.363 87.5489 45.4265C86.7821 44.9565 85.8527 44.6279 84.7643 44.4335C83.6759 44.2427 82.1741 44.1473 80.2517 44.1473H72.0604V55.6038H81.4673C84.2837 55.6038 86.3616 55.1338 87.7079 54.1973C89.0508 53.2609 89.7222 51.7661 89.7222 49.7165L89.7257 49.713ZM91.5173 69.1028C91.5173 67.0143 90.7717 65.4347 89.2769 64.3675C87.7822 63.3003 85.4145 62.7667 82.1741 62.7667H72.064V75.6296H82.432C85.5453 75.6296 87.8387 75.096 89.3123 74.0288C90.7859 72.9616 91.5209 71.3184 91.5209 69.1028H91.5173Z" fill="#FFAE71"/>
<path d="M147.895 50.1583C147.895 51.2255 147.51 52.1549 146.743 52.9429C145.976 53.7345 144.994 54.1267 143.8 54.1267C142.775 54.1267 141.955 53.8511 141.336 53.2963C140.718 52.7415 139.962 51.5471 139.064 49.713C138.124 47.8366 136.771 46.3418 135 45.2322C133.23 44.1226 131.279 43.5678 129.145 43.5678C125.261 43.5678 122.201 45.0202 119.961 47.9179C117.72 50.8191 116.6 54.9571 116.6 60.332C116.6 65.7069 117.752 69.8237 120.056 72.4281C121.166 73.6649 122.434 74.6049 123.862 75.2445C125.29 75.8841 126.965 76.2057 128.887 76.2057C131.615 76.2057 133.912 75.4813 135.767 74.0289C137.623 72.58 138.976 70.5729 139.831 68.0144C140.64 65.5408 142.029 64.304 143.99 64.304C145.058 64.304 146.005 64.6679 146.839 65.3924C147.669 66.1168 148.086 67.0992 148.086 68.336C148.086 70.2548 147.457 72.3044 146.199 74.4777C144.941 76.6545 143.266 78.5309 141.174 80.1105C138.061 82.4145 134.071 83.5665 129.209 83.5665C122.894 83.5665 117.968 81.9021 114.427 78.5768C112.038 76.3152 110.236 73.6084 109.02 70.4492C107.805 67.2935 107.197 63.7951 107.197 59.9539C107.197 55.2186 108.126 51.0594 109.981 47.4762C111.837 43.8929 114.437 41.1189 117.787 39.1577C121.137 37.1964 124.943 36.2141 129.209 36.2141C132.961 36.2141 136.258 36.9597 139.096 38.4545C141.934 39.9492 144.107 41.7939 145.623 43.9883C147.135 46.1863 147.895 48.243 147.895 50.1654V50.1583Z" fill="#FFAE71"/>
<path d="M243.727 135.895C239.151 135.895 234.642 135.492 230.225 134.704C221.761 133.191 215.828 125.502 216.514 116.932L218.1 97.1185C218.38 93.5953 222.041 90.733 226.263 90.733H261.219C265.446 90.733 269.114 93.5953 269.39 97.115L270.976 116.932C271.662 125.502 265.729 133.191 257.265 134.704C252.841 135.495 248.332 135.895 243.756 135.898H243.727V135.895Z" fill="white"/>
<path d="M243.809 104.73C240.031 104.73 236.253 103.278 233.402 100.38C232.469 99.4331 232.479 97.91 233.426 96.9771C234.373 96.0442 235.897 96.0548 236.829 97.0018C240.621 100.85 246.841 100.896 250.689 97.1043C251.636 96.1714 253.159 96.182 254.092 97.1291C255.025 98.0761 255.014 99.5992 254.067 100.532C251.226 103.334 247.516 104.73 243.812 104.73H243.809Z" fill="#FD7E14"/>
<path d="M214.304 89C231.593 89 245.608 74.897 245.608 57.5C245.608 40.103 231.593 26 214.304 26C197.015 26 183 40.103 183 57.5C183 74.897 197.015 89 214.304 89Z" fill="white"/>
<path d="M214.304 72.2888C206.2 72.2888 199.604 65.6551 199.604 57.4964C199.604 49.3377 206.196 42.704 214.304 42.704C222.412 42.704 229.004 49.3377 229.004 57.4964C229.004 65.6551 222.412 72.2888 214.304 72.2888Z" fill="black"/>
<path d="M271.696 89C288.985 89 303 74.897 303 57.5C303 40.103 288.985 26 271.696 26C254.407 26 240.392 40.103 240.392 57.5C240.392 74.897 254.407 89 271.696 89Z" fill="white"/>
<path d="M271.696 72.2888C263.592 72.2888 256.996 65.6551 256.996 57.4964C256.996 49.3377 263.588 42.704 271.696 42.704C279.804 42.704 286.396 49.3377 286.396 57.4964C286.396 65.6551 279.804 72.2888 271.696 72.2888Z" fill="black"/>
<path d="M278.328 55.2518C274.891 55.2518 272.095 52.4379 272.095 48.9797C272.095 45.5215 274.891 42.7076 278.328 42.7076C281.764 42.7076 284.561 45.5215 284.561 48.9797C284.561 52.4379 281.764 55.2518 278.328 55.2518Z" fill="white"/>
<path d="M220.861 55.2518C217.424 55.2518 214.628 52.4379 214.628 48.9797C214.628 45.5215 217.424 42.7076 220.861 42.7076C224.297 42.7076 227.094 45.5215 227.094 48.9797C227.094 52.4379 224.297 55.2518 220.861 55.2518Z" fill="white"/>
<path d="M305.255 59.616C303.566 57.32 300.973 56 298.139 56H188.865C186.031 56 183.437 57.3165 181.749 59.616C180.06 61.9119 179.566 64.7977 180.391 67.5324L184.959 82.6703C186.101 86.4583 189.505 89 193.433 89H231.308C235.235 89 238.64 86.4548 239.782 82.6703L243.5 70.3445L247.218 82.6703C248.36 86.4583 251.765 89 255.692 89H293.567C297.495 89 300.899 86.4548 302.041 82.6703L306.609 67.5324C307.434 64.7977 306.94 61.9119 305.251 59.616H305.255ZM238.918 65.8684L234.351 81.0063C233.94 82.3649 232.718 83.2812 231.308 83.2812H193.433C192.023 83.2812 190.801 82.3684 190.39 81.0063L185.822 65.8649C185.526 64.8819 185.704 63.8463 186.309 63.0213C186.915 62.1963 187.848 61.7223 188.865 61.7223H235.876C236.892 61.7223 237.825 62.1963 238.431 63.0213C239.037 63.8463 239.214 64.8819 238.918 65.8649V65.8684ZM301.181 65.8684L296.614 81.0098C296.203 82.3684 294.981 83.2847 293.571 83.2847H255.696C254.286 83.2847 253.064 82.3719 252.653 81.0098L248.085 65.8684C247.789 64.8854 247.967 63.8498 248.573 63.0248C249.178 62.1998 250.111 61.7259 251.128 61.7259H298.139C299.155 61.7259 300.088 62.1998 300.694 63.0248C301.3 63.8498 301.477 64.8854 301.181 65.8684Z" fill="#8ED1FC"/>
</svg>
