<svg width="318" height="145" viewBox="0 0 318 145" fill="none" xmlns="http://www.w3.org/2000/svg">
<path d="M299.964 0H18.0325C8.07351 0 0 8.06631 0 18.0164V110H318V18.0164C318 8.06631 309.926 0 299.967 0H299.964Z" fill="#8ED1FC"/>
<path d="M301.939 49C300.805 49 299.886 49.9468 299.886 51.1166C299.886 63.6078 287.381 73.7668 272.011 73.7668C256.64 73.7668 244.139 63.6078 244.139 51.1166C244.139 49.9468 243.22 49 242.085 49C242.053 49 242.025 49 241.996 49.0037C241.968 49.0037 241.936 49 241.908 49C240.773 49 239.854 49.9468 239.854 51.1166C239.854 63.6078 227.349 73.7668 211.979 73.7668C196.608 73.7668 184.107 63.6078 184.107 51.1166C184.107 49.9468 183.188 49 182.053 49C180.919 49 180 49.9468 180 51.1166C180 65.9401 194.346 78 211.982 78C225.739 78 237.496 70.6595 242 60.3946C246.504 70.6595 258.261 78 272.018 78C289.654 78 304 65.9401 304 51.1166C304 49.9468 303.081 49 301.947 49H301.939Z" fill="#003135"/>
<path d="M41.4947 41.2355L53.759 71.4123C54.8724 74.1105 55.5992 75.9507 55.9431 76.9328C56.2835 77.9185 56.4573 78.8368 56.4573 79.6949C56.4573 80.7657 56.007 81.7407 55.1099 82.6165C54.2093 83.4922 53.1421 83.9319 51.9011 83.9319C50.7878 83.9319 49.912 83.6447 49.2703 83.0668C48.6285 82.4888 48.0719 81.6237 47.6003 80.4678L44.3241 72.3129H25.7025L22.5576 80.5955C22.1286 81.7088 21.5932 82.5456 20.9514 83.0987C20.3097 83.6553 19.4303 83.9319 18.3206 83.9319C16.9945 83.9319 15.9237 83.5029 15.1118 82.6484C14.2998 81.7939 13.8921 80.8295 13.8921 79.7587C13.8921 79.0318 13.9878 78.3582 14.1828 77.7377C14.3743 77.1172 14.7076 76.2095 15.1792 75.0076L28.727 40.7852C29.2836 39.5443 29.8509 38.665 30.4289 38.1544C31.0068 37.6438 31.7124 37.2219 32.5491 36.9028C33.3824 36.5801 34.1872 36.4206 34.9566 36.4206C38.0378 36.4206 40.2219 38.0268 41.5054 41.2355H41.4947ZM41.8812 65.1188L34.8822 46.242L28.0746 65.1188H41.8777H41.8812Z" fill="#C0E9FF"/>
<path d="M95.2994 40.2711C96.6255 41.3845 97.6111 42.6786 98.2529 44.1571C98.8947 45.6357 99.2173 47.1638 99.2173 48.7487C99.2173 50.9754 98.6287 52.9645 97.4516 54.7195C96.2744 56.4746 94.5725 57.8432 92.3459 58.8289C98.338 60.584 101.334 64.3282 101.334 70.065C101.334 73.7879 99.9229 76.9789 97.097 79.6311C95.771 80.872 93.9946 81.7726 91.768 82.3293C89.5413 82.8859 86.7615 83.1625 83.4216 83.1625H69.1682C67.757 83.1625 66.7501 83.0455 66.1509 82.8079C65.5517 82.5739 65.0907 82.3151 64.7716 82.0385C64.449 81.762 64.2469 81.5776 64.1618 81.4925C63.7327 81.1521 63.4562 80.56 63.3285 79.7268C63.2009 78.8936 63.1371 77.6632 63.1371 76.0358V44.3167C63.1371 42.4765 63.2222 41.2143 63.3924 40.53C63.5626 39.8457 63.9278 39.2039 64.4844 38.6047C65.0411 38.048 65.6828 37.6722 66.4097 37.4807C67.1365 37.2893 68.4839 37.1935 70.4552 37.1935H84.1945C86.7615 37.1935 88.935 37.4311 90.7114 37.8991C92.4877 38.3707 94.0194 39.1614 95.3029 40.2747L95.2994 40.2711ZM90.1015 49.9684C90.1015 48.0431 89.3747 46.6072 87.9174 45.6676C87.148 45.196 86.2155 44.8663 85.1235 44.6713C84.0314 44.4798 82.5245 44.3841 80.5957 44.3841H72.377V55.879H81.8154C84.6413 55.879 86.7261 55.4074 88.077 54.4678C89.4243 53.5282 90.098 52.0284 90.098 49.972L90.1015 49.9684ZM91.8992 69.4232C91.8992 67.3278 91.151 65.7429 89.6512 64.6721C88.1514 63.6013 85.7759 63.0659 82.5245 63.0659H72.3805V75.972H82.7834C85.9071 75.972 88.2082 75.4366 89.6867 74.3658C91.1652 73.295 91.9027 71.6463 91.9027 69.4232H91.8992Z" fill="#C0E9FF"/>
<path d="M148.466 50.4151C148.466 51.4859 148.08 52.4184 147.31 53.2091C146.541 54.0033 145.555 54.3968 144.357 54.3968C143.328 54.3968 142.506 54.1203 141.885 53.5636C141.265 53.007 140.506 51.8085 139.605 49.9684C138.662 48.0856 137.304 46.5858 135.528 45.4725C133.752 44.3592 131.794 43.8025 129.653 43.8025C125.756 43.8025 122.686 45.2598 120.438 48.1672C118.19 51.0781 117.066 55.2301 117.066 60.623C117.066 66.0158 118.222 70.1465 120.534 72.7596C121.647 74.0006 122.92 74.9437 124.352 75.5855C125.785 76.2272 127.465 76.5499 129.394 76.5499C132.131 76.5499 134.436 75.823 136.297 74.3658C138.159 72.9121 139.517 70.8982 140.375 68.3311C141.187 65.8492 142.58 64.6082 144.548 64.6082C145.619 64.6082 146.569 64.9734 147.406 65.7003C148.239 66.4271 148.657 67.4128 148.657 68.6538C148.657 70.5791 148.026 72.6355 146.764 74.8161C145.502 77.0002 143.821 78.8829 141.722 80.4678C138.599 82.7795 134.596 83.9354 129.717 83.9354C123.381 83.9354 118.438 82.2654 114.885 78.929C112.489 76.6598 110.68 73.9438 109.461 70.7741C108.241 67.6078 107.631 64.0977 107.631 60.2436C107.631 55.4924 108.564 51.3193 110.425 47.724C112.287 44.1287 114.896 41.3454 118.257 39.3776C121.619 37.4098 125.437 36.4241 129.717 36.4241C133.482 36.4241 136.79 37.1722 139.637 38.672C142.485 40.1718 144.665 42.0226 146.186 44.2245C147.704 46.4298 148.466 48.4934 148.466 50.4222V50.4151Z" fill="#C0E9FF"/>
<path d="M282 101.284C282 103.574 281.605 105.762 280.862 107.801C278.215 118.66 262.284 127 243.023 127C223.762 127 208.115 118.809 205.252 108.103C204.441 105.979 204 103.688 204 101.284C204 90.6312 212.658 82 223.343 82C225.914 82 228.372 82.5071 230.624 83.4184C234.163 84.9574 238.68 85.2411 243.023 85.2411C247.366 85.2411 250.98 84.6738 255.394 83.4113C257.639 82.5 260.086 82.0035 262.657 82.0035C273.342 82.0035 282 90.6348 282 101.287V101.284Z" fill="#FFC107"/>
<path d="M243.002 145C230.318 145 220 134.682 220 122.002C220 109.321 230.318 99 243.002 99C255.686 99 266 109.318 266 122.002C266 134.686 255.682 145 243.002 145ZM243.002 102.956C232.502 102.956 223.96 111.499 223.96 121.998C223.96 132.498 232.502 141.04 243.002 141.04C253.501 141.04 262.044 132.498 262.044 121.998C262.044 111.499 253.501 102.956 243.002 102.956Z" fill="#7F7F7F"/>
<path d="M242.5 118C235.054 118 229 112.167 229 105C229 97.8332 235.058 92 242.5 92C249.942 92 256 97.8332 256 105C256 112.167 249.942 118 242.5 118Z" fill="#FDE7BE"/>
</svg>
