<svg width="46" height="34" viewBox="0 0 46 34" fill="none" xmlns="http://www.w3.org/2000/svg">
<path d="M10.09 0H4.32C1.93413 0 0 1.93414 0 4.32001V29.04C0 31.4259 1.93413 33.36 4.32 33.36H10.09C12.4759 33.36 14.41 31.4259 14.41 29.04V4.32001C14.41 1.93414 12.4759 0 10.09 0Z" fill="#FFC722"/>
<path d="M42.5123 7.59H38.1078C36.2865 7.59 34.8101 9.09742 34.8101 10.9569V30.2231C34.8101 32.0826 36.2865 33.59 38.1078 33.59H42.5123C44.3336 33.59 45.8101 32.0826 45.8101 30.2231V10.9569C45.8101 9.09742 44.3336 7.59 42.5123 7.59Z" fill="#FDE7BE"/>
<path d="M27.59 16.07H21.82C19.4341 16.07 17.5 18.0041 17.5 20.39V29.04C17.5 31.4259 19.4341 33.36 21.82 33.36H27.59C29.9759 33.36 31.91 31.4259 31.91 29.04V20.39C31.91 18.0041 29.9759 16.07 27.59 16.07Z" fill="#FEDD8D"/>
</svg>
