<svg width="48" height="48" viewBox="0 0 48 48" fill="none" xmlns="http://www.w3.org/2000/svg">
<path d="M22.0601 13.6C24.3901 16.45 25.97 19.94 26.51 23.75H26.72C38.2 23.75 47.5 14.44 47.5 2.97C47.5 1.33 46.1701 0 44.5301 0H41.5601C32.6101 0 24.97 5.66001 22.05 13.6H22.0601Z" fill="#FEDD8D"/>
<path d="M2.97 5.93002C1.33 5.93002 0 7.26002 0 8.90002C0 20.38 9.31 29.68 20.78 29.68V44.52C20.78 46.16 22.11 47.49 23.75 47.49C25.39 47.49 26.72 46.16 26.72 44.52V26.71C26.72 15.23 17.41 5.93002 5.94 5.93002H2.97Z" fill="#FFC722"/>
</svg>
