<svg width="46" height="37" viewBox="0 0 46 37" fill="none" xmlns="http://www.w3.org/2000/svg">
<path d="M0 10.11C0 11.97 1.51 13.48 3.37 13.48C5.23 13.48 6.74 11.97 6.74 10.11C6.74 8.25004 5.23 6.74004 3.37 6.74004C1.51 6.74004 0 8.25004 0 10.11ZM19.54 3.37004C19.54 5.23004 21.06 6.74004 22.92 6.74004C24.77 6.74004 26.28 5.22003 26.28 3.36003C26.28 1.50003 24.76 -0.00995062 22.91 4.93843e-05C21.05 4.93843e-05 19.54 1.51004 19.54 3.37004ZM39.08 10.11C39.08 11.97 40.59 13.48 42.45 13.48C44.31 13.48 45.82 11.97 45.82 10.11C45.82 8.25004 44.31 6.74004 42.45 6.74004C40.59 6.74004 39.08 8.25004 39.08 10.11Z" fill="#FEDD8D"/>
<path d="M24.5101 6.34003C24.0301 6.60003 23.4901 6.74005 22.9101 6.74005C22.3301 6.74005 21.7801 6.60003 21.3101 6.34003L15.0801 15.2401C14.2001 16.4901 12.4801 16.76 11.2601 15.85L6.15005 12.03C5.54005 12.91 4.53006 13.4901 3.38006 13.4901H3.31006L6.06006 31.8101C6.46006 34.4501 8.72006 36.4 11.3901 36.4H34.4501C37.1201 36.4 39.3901 34.4501 39.7801 31.8101L42.5301 13.4901H42.4601C41.3101 13.4901 40.3001 12.92 39.6901 12.03L34.5901 15.86C33.3701 16.78 31.6401 16.5001 30.7701 15.2501L24.5301 6.34003H24.5101Z" fill="#FFC722"/>
</svg>
