<svg width="275" height="119" viewBox="0 0 275 119" fill="none" xmlns="http://www.w3.org/2000/svg">
<path d="M195.11 70.05C196.25 66.59 195.61 62.79 193.4 59.89C191.2 57 187.92 55.57 184.37 55.77L186.27 48.17L189.29 35.88C189.68 34.31 189.49 32.69 189.14 31.18C188.48 28.43 186.77 26.14 184.37 24.68C180.67 22.43 176.04 22.8 172.67 25.54C172.71 25.22 172.66 25 172.67 24.71C172.82 18.81 168.03 13.9 162.09 14.17C159.42 14.3 157.04 15.53 155.26 17.46C153.19 19.7 152.37 22.39 152.46 25.43L152.49 26.36L151.8 25.71C149.33 23.62 146.13 22.72 142.81 23.45C140.03 24.06 137.53 25.94 136.05 28.66C134.67 31.19 134.46 34.14 135.09 36.97C135.09 36.97 143.01 72.18 143.16 72.43C144.82 76.47 147.45 80.19 150.91 82.84L146.58 90.21C145.4 92.21 142.82 92.88 140.81 91.71L138.6 90.41C139.16 89.42 139.22 88.27 138.73 87.29C138.16 86.14 136.97 85.41 135.66 85.48C134.83 85.52 133.85 85.9 133.35 86.64L128.29 94.22C127.36 95.61 127.94 97.4 129.1 98.34C130.42 99.35 132.19 99.26 133.48 98.08L137.19 92.58L139.51 93.94C140.59 94.57 141.77 94.88 142.94 94.88C145.27 94.88 147.55 93.68 148.82 91.53L153.07 84.29C154.24 84.97 155.48 85.54 156.79 85.96C158.78 86.6 160.72 86.81 162.8 86.8C165.5 86.8 167.98 86.12 170.42 85.01L175.77 82.57H176.51C178.83 82.57 180.72 84.46 180.72 86.78V92.81C179.75 93.01 179.03 93.87 178.62 94.76C177.91 96.78 179.12 98.84 181.18 99.2L189.93 99.24C191.72 99.24 193.17 97.89 193.25 96.1C193.33 94.42 192.05 92.74 190.21 92.74L183.31 92.76V86.77C183.31 84.17 181.85 81.91 179.7 80.77L187.66 77.14C191.19 76.14 193.97 73.47 195.12 70.01L195.11 70.05ZM163.07 69.2C163.12 68.97 163.48 68.81 163.65 68.83C163.81 68.86 164.15 69.04 164.15 69.29C164.07 72.68 166.41 75.89 169.69 75.83C170.08 75.83 170.3 75.99 170.39 76.29C170.45 76.5 170.35 77.02 169.94 77.04C165.66 77.23 162.82 73.2 163.07 69.19V69.2ZM177.14 66.72C176.05 66.92 174.98 67.03 173.99 66.52C172.41 65.72 171.29 64.31 170.62 62.66C168.63 66.3 163.6 68.38 160.34 65.55C159.07 64.45 158.21 63.08 157.68 61.51C156.24 57.21 157.16 52 160.65 49C163.79 46.3 168.68 48.55 170.82 51.97C171.85 49.85 173.38 47.93 175.69 47.83C177.32 47.89 178.82 48.4 180.09 49.36C180.79 49.89 181.47 50.41 181.85 51.16L182.25 51.67C182.5 51.98 182.74 52.32 182.87 52.65C183.11 52.73 183.2 52.93 183.28 53.17C183.59 54.13 183.87 55.1 183.97 56.14C184.41 60.7 181.72 65.55 177.13 66.71L177.14 66.72Z" fill="#8ED1FC"/>
<path d="M198.9 70.92H274.21V94.69H187.79V82.04C187.79 75.91 192.77 70.93 198.9 70.93V70.92Z" fill="#FEDD8D"/>
<path d="M243.09 0.859997L266.4 10.55L243.25 20.24L243.09 0.859997Z" fill="#FFC722"/>
<path d="M242.98 64.86V0" stroke="#FFC722" stroke-width="1.17" stroke-miterlimit="10"/>
<path d="M222.75 47.39H274.29V71.16H211.64V58.51C211.64 52.38 216.62 47.4 222.75 47.4V47.39Z" fill="#FFC722"/>
<path d="M175.23 94.92H274.3V118.69H164.12V106.04C164.12 99.91 169.1 94.93 175.23 94.93V94.92Z" fill="#FDE7BE"/>
<path d="M183.98 56.15C183.88 55.11 183.6 54.14 183.29 53.18C183.21 52.94 183.12 52.74 182.88 52.66L183.2 53.46C183.71 54.72 183.61 56.04 183.03 57.26C182.59 58.17 181.75 58.74 180.71 58.69C178.52 58.59 176.59 55.46 176.65 53.03C177.65 53.59 178.55 53.93 179.25 53.21C179.91 52.52 179.51 51.31 178.49 50.48C178.35 50.37 177.94 50.13 178.14 49.95C179.3 49.33 181.05 50.16 181.85 51.16C181.47 50.41 180.79 49.89 180.09 49.36C178.82 48.4 177.31 47.89 175.69 47.83C173.38 47.93 171.85 49.85 170.82 51.97C168.68 48.55 163.79 46.3 160.65 49C157.16 52 156.24 57.21 157.68 61.51C158.21 63.09 159.07 64.46 160.34 65.55C163.6 68.38 168.63 66.3 170.62 62.66C171.29 64.31 172.41 65.72 173.99 66.52C174.98 67.03 176.05 66.92 177.14 66.72C181.73 65.56 184.41 60.71 183.98 56.15ZM171.16 57.15C170.65 58.26 169.65 58.87 168.35 58.63C167.26 58.43 166.35 57.62 165.67 56.68C164.74 55.4 164.41 53.84 164.53 52.23C165.5 53.04 166.76 53.5 167.47 52.8C168.24 52.03 167.72 50.57 166.48 49.83C167.08 49.59 167.66 49.69 168.19 49.89C169.96 50.59 170.99 52.15 171.43 53.89C171.7 54.98 171.64 56.1 171.16 57.15Z" fill="white"/>
<path d="M183.03 57.26C182.59 58.17 181.75 58.74 180.71 58.69C178.52 58.59 176.59 55.46 176.65 53.03C177.65 53.59 178.55 53.93 179.25 53.21C179.91 52.52 179.51 51.31 178.49 50.48C178.35 50.37 177.94 50.13 178.14 49.95C179.3 49.33 181.05 50.16 181.85 51.16L182.25 51.67C182.5 51.98 182.74 52.32 182.87 52.65L183.19 53.45C183.7 54.71 183.6 56.03 183.02 57.25L183.03 57.26Z" fill="#003135"/>
<path d="M169.94 77.05C165.66 77.24 162.82 73.21 163.07 69.2C163.12 68.97 163.48 68.81 163.65 68.83C163.81 68.86 164.15 69.04 164.15 69.29C164.07 72.68 166.41 75.89 169.69 75.83C170.08 75.83 170.3 75.99 170.39 76.29C170.45 76.5 170.35 77.02 169.94 77.04V77.05Z" fill="#003135"/>
<path d="M164.53 52.23C164.4 53.84 164.74 55.4 165.67 56.68C166.35 57.61 167.27 58.42 168.35 58.63C169.65 58.87 170.65 58.27 171.16 57.15C171.64 56.11 171.7 54.99 171.43 53.9C170.99 52.16 169.96 50.59 168.19 49.9C167.66 49.69 167.08 49.59 166.48 49.83C167.72 50.57 168.24 52.02 167.47 52.8C166.76 53.51 165.5 53.05 164.53 52.23Z" fill="#003135"/>
<path d="M0 118.36H274.3" stroke="#FDE7BE" stroke-width="1.17" stroke-miterlimit="10"/>
</svg>
